SplineFontDB: 3.0
FontName: FifthLeg-Condensed
FullName: FifthLeg Condensed
FamilyName: FifthLeg Condensed
Weight: Regular
Copyright: Designed by Jakub Steiner <jimmac@gmail.com> with FontForge 2.0\n\nhttp://jimmac.musichall.cz\n
UComments: "2008-8-26: Created." 
Version: 0.2
ItalicAngle: 0
UnderlinePosition: 122
UnderlineWidth: 49
Ascent: 800
Descent: 200
LayerCount: 2
Layer: 0 0 "Back" 
Layer: 1 0 "Fore" 
NeedsXUIDChange: 1
XUID: [1021 332 1867756345 15892902]
FSType: 0
OS2Version: 2
OS2_WeightWidthSlopeOnly: 0
OS2_UseTypoMetrics: 1
CreationTime: 1219682457
ModificationTime: 1241048833
PfmFamily: 33
TTFWeight: 400
TTFWidth: 3
LineGap: 0
VLineGap: 0
Panose: 0 0 4 0 0 0 0 0 0 0
OS2TypoAscent: 200
OS2TypoAOffset: 1
OS2TypoDescent: -200
OS2TypoDOffset: 1
OS2TypoLinegap: 0
OS2WinAscent: 0
OS2WinAOffset: 1
OS2WinDescent: 0
OS2WinDOffset: 1
HheadAscent: 0
HheadAOffset: 1
HheadDescent: 0
HheadDOffset: 1
OS2SubXSize: 500
OS2SubYSize: 500
OS2SubXOff: 0
OS2SubYOff: -62
OS2SupXSize: 500
OS2SupYSize: 500
OS2SupXOff: 0
OS2SupYOff: 500
OS2StrikeYSize: 50
OS2StrikeYPos: 199
OS2FamilyClass: 2048
OS2Vendor: 'SUSE'
OS2CodePages: 00000001.00000000
OS2UnicodeRanges: 80000001.00000000.00000000.00000000
Lookup: 258 0 0 "Pairwise Positioning (kerning) in Latin lookup 0"  {"Pairwise Positioning (kerning) in Latin lookup 0-1"  } ['def ' ('DFLT' <'dflt' > 'latn' <'dflt' > ) ]
DEI: 0

StartChar: b
Encoding: 98 98 0
Width: 468
VWidth: 0
Flags: HW
HStem: -3.82031 93.5889<228.693 341.586> 385.811 93.586<235.891 341.586>
VStem: 48.7031 88.8139<0.954102 43.9287 91.229 384.505 424.01 662.004> 344.555 88.813<92.1786 126.058 126.058 383.4>
LayerCount: 2
Fore
SplineSet
137.517 707.636 m 1
 137.517 424.01 l 1
 291.076 476.532 l 2
 298.717 478.441 306.356 479.397 313.995 479.397 c 0
 373.205 479.397 433.368 422.1 433.368 374.351 c 2
 433.368 101.227 l 2
 433.368 53.4785 373.205 -3.82031 313.995 -3.82031 c 0
 306.356 -3.82031 298.717 -1.91016 291.076 0 c 2
 137.517 43.9287 l 5
 137.517 0.954102 l 1
 48.7031 0.954102 l 1
 48.7031 584.444 l 2
 48.7031 657.978 89.7686 698.086 137.517 707.636 c 1
316.287 385.811 m 2
 166.548 385.811 l 2
 151.268 385.811 137.517 370.53 137.517 349.521 c 2
 137.517 125.102 l 2
 138.28 104.093 154.323 89.7686 165.783 89.7686 c 0
 166.548 89.7686 l 2
 316.287 89.7686 l 2
 330.039 89.7686 344.555 106.002 344.555 126.058 c 2
 344.555 349.521 l 2
 344.555 367.665 332.331 385.811 316.287 385.811 c 2
EndSplineSet
EndChar

StartChar: h
Encoding: 104 104 1
Width: 449
VWidth: -20
Flags: HW
HStem: 0.954102 21G<48.7031 137.517 324.691 413.505> 385.811 93.586<226.258 320.626>
VStem: 48.7031 88.8139<0.954102 384.551 421.144 662.004> 324.691 88.814<0.954102 382.219>
LayerCount: 2
Fore
SplineSet
137.517 707.636 m 1
 137.517 421.144 l 5
 272.741 476.532 l 2
 278.854 478.441 285.728 479.397 293.368 479.397 c 0
 343.792 479.397 413.505 430.692 413.505 374.351 c 2
 413.505 0.954102 l 1
 324.691 0.954102 l 1
 324.691 349.521 l 2
 324.691 370.53 310.176 385.811 295.66 385.811 c 2
 166.548 385.811 l 2
 149.74 385.811 137.517 367.665 137.517 349.521 c 2
 137.517 0.954102 l 1
 48.7031 0.954102 l 1
 48.7031 584.444 l 2
 48.7031 657.978 89.7686 698.086 137.517 707.636 c 1
EndSplineSet
EndChar

StartChar: m
Encoding: 109 109 2
Width: 656
VWidth: -20
Flags: HW
HStem: 0.954102 21G<39.1533 127.968 285.346 373.205 531.349 620.162> 385.811 93.586<192.429 282.753 438.919 526.365>
VStem: 39.1533 88.8147<0.954102 384.785 433.559 475.577> 285.346 87.859<0.954102 384.505> 531.349 88.813<0.954102 382.219>
LayerCount: 2
Fore
SplineSet
269.304 479.397 m 0
 319.725 479.397 341.69 435.468 356.969 431.648 c 2
 367.473 430.692 l 5
 487.802 476.532 l 1
 497.733 478.441 506.137 479.397 515.305 479.397 c 0
 575.278 479.397 620.162 430.692 620.162 374.351 c 2
 620.162 0.954102 l 1
 531.349 0.954102 l 1
 531.349 349.521 l 2
 531.349 370.53 516.833 385.811 502.317 385.811 c 2
 402.236 385.811 l 2
 386.193 385.811 373.205 367.665 373.205 349.521 c 2
 373.205 0.954102 l 1
 285.346 0.954102 l 1
 285.346 349.521 l 2
 285.346 370.53 270.831 385.811 256.315 385.811 c 2
 156.234 385.811 l 2
 140.19 385.811 127.968 367.665 127.968 349.521 c 2
 127.968 0.954102 l 1
 39.1533 0.954102 l 1
 39.1533 475.577 l 1
 127.968 475.577 l 1
 127.968 433.559 l 5
 242.565 476.532 l 1
 251.731 478.441 260.899 479.397 269.304 479.397 c 0
EndSplineSet
EndChar

StartChar: a
Encoding: 97 97 3
Width: 454
VWidth: 0
Flags: HW
HStem: -5.72949 92.6318<115.911 225.177> 210.094 76.398<115.891 262.772> 385.811 89.766<134.797 325.854>
VStem: 23.874 88.813<92.3365 207.021> 331.485 88.8135<0.954102 42.0195 86.9023 210.094 254.022 379.719>
LayerCount: 2
Fore
SplineSet
148.976 210.094 m 2
 128.922 210.094 112.687 194.815 112.687 172.85 c 2
 112.687 123.192 l 2
 112.687 94.542 142.291 86.9023 148.976 86.9023 c 2
 331.485 86.9023 l 1
 331.485 210.094 l 1
 148.976 210.094 l 2
173.806 475.577 m 2
 245.537 475.577 l 2
 352.494 475.577 420.299 414.46 420.299 299.862 c 2
 420.299 0.954102 l 1
 331.485 0.954102 l 1
 331.485 42.0195 l 1
 161.392 0 l 2
 144.295 -4.22363 128.922 -5.72949 116.507 -5.72949 c 0
 42.0195 -5.72949 23.874 57.2979 23.874 113.643 c 2
 23.874 202.455 l 2
 23.874 253.068 46.7939 286.492 113.643 286.492 c 0
 128.922 286.492 144.325 283.613 162.346 280.764 c 2
 331.485 254.022 l 1
 331.485 349.521 l 2
 331.485 363.845 317.16 385.811 295.196 385.811 c 2
 112.687 385.811 l 1
 115.552 421.144 129.877 475.577 173.806 475.577 c 2
EndSplineSet
EndChar

StartChar: u
Encoding: 117 117 4
Width: 464
VWidth: -20
Flags: HW
HStem: -7.9541 97.7227<149.177 267.719>
VStem: 58.1992 87.8588<91.3171 475.577> 337.86 89.766<0.954102 30.5596 90.8406 125.102 125.102 475.577>
LayerCount: 2
Fore
SplineSet
58.1992 475.577 m 1
 146.058 475.577 l 1
 146.058 126.058 l 2
 146.058 105.047 160.572 89.7686 175.852 89.7686 c 2
 308.828 89.7686 l 2
 326.4 89.7686 337.86 108.867 337.86 125.102 c 2
 337.86 475.577 l 1
 427.626 475.577 l 1
 427.626 0.954102 l 1
 337.86 0.954102 l 1
 337.86 30.5596 l 1
 201.828 -2.27051 l 2
 182.728 -6.08984 166.685 -7.9541 152.168 -7.9541 c 4
 87.8027 -7.9541 58.1992 20.6494 58.1992 93.2266 c 2
 58.1992 475.577 l 1
EndSplineSet
EndChar

StartChar: r
Encoding: 114 114 6
Width: 377
VWidth: -20
Flags: HW
HStem: 0.954102 21G<39.1533 127.968> 385.811 91.676<180.778 342.906>
VStem: 39.1533 88.8147<0.954102 384.551 443.108 475.577>
LayerCount: 2
Fore
SplineSet
127.968 475.577 m 1
 127.968 443.108 l 1
 248.677 471.758 l 2
 259.285 473.667 271.699 477.487 284.113 477.487 c 0
 346.187 477.487 362.531 434.514 375.901 385.811 c 5
 156.998 385.811 l 2
 140.19 385.811 127.968 367.665 127.968 349.521 c 2
 127.968 0.954102 l 1
 39.1533 0.954102 l 1
 39.1533 475.577 l 1
 127.968 475.577 l 1
375.901 385.811 m 5
EndSplineSet
EndChar

StartChar: g
Encoding: 103 103 7
Width: 470
VWidth: -20
Flags: HW
HStem: -224.7 87.858<142.81 329.481> 0.673828 93.5889<128.445 267.572> 388.395 91.676<128.922 224.658>
VStem: 37.2441 88.8139<95.5682 385.55> 332.332 89.767<-135.086 33.1426 94.2627 388.395 433.278 480.071>
LayerCount: 2
Fore
SplineSet
126.058 353.061 m 6
 126.058 130.551 l 6
 126.058 109.541 139.808 94.2627 155.088 94.2627 c 6
 332.332 94.2627 l 5
 332.332 388.395 l 5
 155.088 388.395 l 6
 132.168 388.395 126.058 359.745 126.058 353.061 c 6
125.102 -136.842 m 5
 184.884 -136.842 245.238 -136.842 304.064 -136.842 c 4
 320.108 -134.932 332.332 -118.698 332.332 -100.553 c 6
 332.332 33.1426 l 5
 166.548 5.44824 l 6
 152.032 3.53906 139.044 0.673828 127.586 0.673828 c 4
 61.1182 0.673828 37.2441 34.0977 37.2441 84.7119 c 6
 37.2441 358.79 l 6
 37.2441 415.133 56.3447 480.071 129.113 480.071 c 4
 139.808 480.071 151.268 476.252 164.256 472.433 c 6
 332.332 433.278 l 5
 332.332 480.071 l 5
 422.099 480.071 l 5
 422.099 -101.508 l 6
 422.099 -177.906 376.261 -224.7 307.884 -224.7 c 6
 174.952 -224.7 l 6
 139.808 -224.7 128.349 -172.176 125.102 -136.842 c 5
EndSplineSet
EndChar

StartChar: o
Encoding: 111 111 8
Width: 423
VWidth: -20
Flags: HW
HStem: -7.63965 88.8125<149.42 333.82> 386.766 88.811<149.42 334.174>
VStem: 57.4238 88.8132<83.3241 384.613> 337.001 88.815<83.3241 384.613>
LayerCount: 2
Fore
SplineSet
156.964 475.577 m 2
 268.275 475.577 l 2
 335.698 475.577 396.816 414.46 396.816 336.151 c 2
 396.816 131.786 l 2
 396.816 53.4785 334.743 -7.63965 268.275 -7.63965 c 2
 156.964 -7.63965 l 2
 90.4971 -7.63965 28.4238 53.4785 28.4238 131.786 c 2
 28.4238 336.151 l 2
 28.4238 414.46 90.4971 475.577 156.964 475.577 c 2
278.207 386.766 m 2
 146.267 386.766 l 2
 130.224 386.766 117.237 371.485 117.237 351.431 c 2
 117.237 116.507 l 2
 117.237 97.4072 130.224 81.1729 146.267 81.1729 c 2
 278.207 81.1729 l 2
 295.015 81.1729 308.001 96.4512 308.001 116.507 c 2
 308.001 351.431 l 2
 308.001 371.485 295.015 386.766 278.207 386.766 c 2
EndSplineSet
EndChar

StartChar: d
Encoding: 100 100 9
Width: 460
VWidth: -25
Flags: HW
HStem: -0.329102 91.6758<130.149 255.671> 385.479 95.587<130.434 279.227> 385.479 63.238<228.602 335.003>
VStem: 39.1533 88.8117<94.1917 383.393> 335.003 88.814<0.112305 38.1123 91.3467 385.479 448.72 704.441>
LayerCount: 2
Fore
SplineSet
194.177 478.112 m 6xd8
 323.777 449.11 l 6
 324.935 448.851 326.009 448.717 326.997 448.717 c 4xb8
 332.198 448.717 335.003 452.428 335.003 461.112 c 6
 335.003 692 l 7
 335.003 700 340.74 704.441 347.24 704.441 c 4
 423.817 704.441 l 5
 423.817 7.1123 l 4
 423.874 2.94043 422.97 0.112305 417.97 0.112305 c 4
 334.977 0.112305 l 13
 334.977 38.1123 l 30
 334.977 38.1123 332.864 45.7822 328.977 44.543 c 6
 202.177 4.1123 l 6
 189.191 0.291992 167.353 -0.329102 157.422 -0.329102 c 4
 90.2969 -0.329102 39.1533 64.6074 39.1533 120.952 c 6
 39.1533 356.112 l 6
 39.1533 422.112 92.0723 481.066 152.729 481.066 c 4
 163.193 481.066 185.528 480.048 194.177 478.112 c 6xd8
157.76 385.479 m 6xd8
 140.953 385.479 127.965 370.2 127.965 349.19 c 6
 127.965 126.682 l 6
 127.965 98.0322 150.885 91.3467 156.233 91.3467 c 6
 335.003 91.3467 l 5
 335.003 385.479 l 5xb8
 157.76 385.479 l 6xd8
EndSplineSet
EndChar

StartChar: s
Encoding: 115 115 10
Width: 414
VWidth: -20
Flags: HW
HStem: 0 78.3086<61.7971 327.336> 206.273 71.805<130.48 327.141> 392.359 78.308<127.856 380.359>
VStem: 36.2891 87.8579<281.6 389.228> 330.362 87.856<82.8255 114.597 114.597 204.347>
LayerCount: 2
Fore
SplineSet
160.436 392.359 m 18
 135 392.359 124.148 373 124.147 355.115 c 10
 124.147 314.367 l 2
 124.146 306.728 131.786 278.078 160.436 278.078 c 2
 271.262 278.078 l 2
 328.561 278.078 378.218 233.969 378.218 175.716 c 2
 378.218 112.687 l 2
 378.218 36.2891 336.199 0 260.566 0 c 2
 106.957 0 l 2
 74.4883 0 49.6592 19.0986 45.8389 78.3086 c 1
 260.566 78.3086 l 2
 267.441 78.3086 290.362 85.9482 290.362 114.597 c 2
 290.362 172.85 l 2
 290.362 192.905 275.845 206.273 260.566 206.273 c 2
 148.021 206.273 l 2
 84.0381 206.272 36.2891 252.113 36.2891 310.367 c 2
 36.2891 382.811 l 2
 37.2441 428.648 72.5781 470.667 148.021 470.667 c 2
 288.544 470.667 l 2
 330.11 469.712 354.85 446.793 361.533 392.359 c 1
 160.436 392.359 l 18
EndSplineSet
EndChar

StartChar: e
Encoding: 101 101 11
Width: 436
VWidth: -20
Flags: HW
HStem: 0 87.8584<138.348 325.362> 206.419 72.345<130.237 309.139> 390.044 81.173<138.968 299.98>
VStem: 40.4697 89.7673<93.4681 206.419 278.764 383.059> 309.139 89.769<278.764 383.058>
LayerCount: 2
Fore
SplineSet
168.435 87.8584 m 2
 392.45 87.8584 l 1
 392.45 46 306.938 0 232.45 0 c 2
 168.435 0 l 2
 93.9482 0 40.4697 72.5781 40.4697 148.976 c 2
 40.4697 331.791 l 2
 40.4697 409.144 102.542 471.217 169.964 471.217 c 2
 268.647 471.217 l 2
 336.834 471.217 399.416 409.141 398.908 331.791 c 2
 398.083 206.419 l 1
 130.237 206.419 l 1
 130.237 138.471 l 2
 130.237 110.532 147.351 87.8584 168.435 87.8584 c 2
130.237 341.341 m 1
 130.237 278.764 l 1
 309.139 278.764 l 1
 309.139 341.341 l 2
 309.139 368.225 292.026 390.044 270.939 390.044 c 2
 168.435 390.044 l 2
 147.351 390.044 130.237 368.225 130.237 341.341 c 1
EndSplineSet
EndChar

StartChar: f
Encoding: 102 102 12
Width: 310
VWidth: -20
Flags: HW
HStem: 0.954102 21G<48.7031 137.517> 400.64 74.937<137.517 282.979> 628.373 69.713<145.074 343.932>
VStem: 48.7031 88.8139<0.954102 400.64 475.577 622.356>
LayerCount: 2
Fore
SplineSet
180.49 698.086 m 2
 348.566 698.086 l 1
 348.566 678.032 l 2
 348.566 640.788 334.241 628.373 291.268 628.373 c 2
 180.49 628.373 l 2
 153.751 628.373 137.517 611.185 137.517 584.444 c 2
 137.517 475.577 l 1
 254.022 475.577 l 2
 272.168 475.577 286.492 455.299 286.492 438.108 c 0
 286.492 419.964 272.168 400.64 254.022 400.64 c 2
 137.517 400.64 l 1
 137.517 0.954102 l 1
 48.7031 0.954102 l 1
 48.7031 586.354 l 2
 48.7031 587.31 l 0
 48.7031 654.158 100.272 698.086 180.49 698.086 c 2
EndSplineSet
EndChar

StartChar: t
Encoding: 116 116 13
Width: 389
VWidth: -20
Flags: HW
HStem: 0.954102 21G<121.786 210.599> 385.811 89.766<16.8776 121.786 210.599 347.202>
VStem: 121.786 88.8129<0.954102 385.811 475.577 691.636>
LayerCount: 2
Fore
SplineSet
166.67 698.086 m 4
 190.545 698.086 210.599 678.032 210.599 654.158 c 6
 210.599 475.577 l 5
 308.705 475.577 l 6
 333.535 475.577 354.544 454.567 354.544 429.738 c 6
 354.544 385.811 l 5
 210.599 385.811 l 5
 210.599 0.954102 l 5
 121.786 0.954102 l 5
 121.786 385.811 l 5
 54.9375 385.811 l 6
 29.1533 385.811 10.0537 405.864 10.0537 429.738 c 4
 10.0537 454.567 29.1533 475.577 54.9375 475.577 c 6
 121.786 475.577 l 5
 121.786 654.158 l 6
 121.786 678.032 141.842 698.086 166.67 698.086 c 4
EndSplineSet
EndChar

StartChar: i
Encoding: 105 105 14
Width: 200
VWidth: -20
Flags: HW
HStem: 0.954102 21G<49.6592 138.471> 597.814 89.7679<56.5078 132.321>
VStem: 49.6592 89.7668<0.954102 468.235 604.132 680.477>
LayerCount: 2
Fore
SplineSet
94.542 475.577 m 4
 119.372 475.577 138.471 454.567 138.471 429.738 c 6
 138.471 0.954102 l 5
 49.6592 0.954102 l 5
 49.6592 429.738 l 6
 49.6592 454.567 70.668 475.577 94.542 475.577 c 4
139.426 641.743 m 0
 139.426 615.959 119.372 597.814 93.5869 597.814 c 0
 66.8477 597.814 49.6592 619.778 49.6592 641.743 c 0
 49.6592 668.482 70.668 687.582 93.5869 687.582 c 0
 118.417 687.582 139.426 667.527 139.426 641.743 c 0
EndSplineSet
EndChar

StartChar: v
Encoding: 118 118 15
Width: 439
VWidth: -20
Flags: HW
HStem: 0.954102 21G<187.178 261.582>
LayerCount: 2
Fore
SplineSet
62.0732 482.712 m 2
 78.3086 481.758 94.542 472.209 101.227 456.928 c 2
 188.638 233.015 l 2
 196.924 210.674 214.793 141 214.793 141 c 2
 216.744 134.135 222.333 132.834 225.666 132.834 c 0
 231 132.834 235 136.667 236.486 141 c 2
 262.172 233.969 l 2
 336.211 456.928 l 2
 342.896 473.163 360.085 482.712 377.275 482.712 c 0
 383.006 482.712 388.734 481.758 394.464 477.938 c 0
 411.654 470.299 421.205 454.062 421.205 437.829 c 0
 421.205 431.144 419.295 425.414 417.385 419.685 c 2
 253.767 0.954102 l 1
 195.513 0.954102 l 1
 21.0088 419.685 l 2
 18.1455 425.414 17.1895 431.144 17.1895 437.829 c 0
 17.1895 454.062 26.7393 470.299 42.9736 477.938 c 0
 48.7031 481.758 55.3877 482.712 62.0732 482.712 c 2
EndSplineSet
EndChar

StartChar: q
Encoding: 113 113 17
Width: 460
VWidth: -25
Flags: HW
HStem: -6.9541 95.5869<130.434 279.227> 25.3945 63.2383<228.602 335.008> 382.766 91.675<130.149 255.671>
VStem: 39.1533 88.8117<90.7186 124.922 347.431 379.92> 335.01 88.814<-230.329 13 13 25.3918 429.517 467 467 474>
LayerCount: 2
Fore
SplineSet
194.177 -4 m 6xb8
 323.777 25.002 l 6
 324.935 25.2607 326.01 25.3945 326.997 25.3945 c 4x78
 332.198 25.3945 335.01 21.6836 335.01 13 c 6
 335.01 -217.888 l 7
 335.01 -225.888 340.747 -230.329 347.247 -230.329 c 4
 423.824 -230.329 l 5
 423.824 467 l 4
 423.881 471.172 422.977 474 417.977 474 c 4
 334.977 474 l 13
 334.977 436 l 30
 334.977 436 332.864 428.33 328.977 429.569 c 6
 202.177 470 l 6
 189.191 473.82 167.353 474.441 157.422 474.441 c 4
 90.2969 474.441 39.1533 409.505 39.1533 353.16 c 6
 39.1533 118 l 6
 39.1533 52 92.0723 -6.9541 152.729 -6.9541 c 4
 163.193 -6.9541 185.528 -5.93555 194.177 -4 c 6xb8
157.76 88.6328 m 6
 140.953 88.6328 127.965 103.912 127.965 124.922 c 6
 127.965 347.431 l 6
 127.965 376.08 150.885 382.766 156.233 382.766 c 6
 335.01 382.766 l 5
 335.01 88.6328 l 5
 157.76 88.6328 l 6
EndSplineSet
EndChar

StartChar: p
Encoding: 112 112 18
Width: 460
VWidth: -25
Flags: HW
HStem: -6.9541 95.5869<183.744 332.537> 25.3945 63.2383<127.97 234.369> 382.766 91.675<207.3 332.821>
VStem: 39.1533 88.8147<-230.329 25.3918 88.6328 382.766 436 474> 335.006 88.811<90.7186 124.922 124.922 379.92>
LayerCount: 2
Fore
SplineSet
268.794 -4 m 6xb8
 139.194 25.002 l 6
 138.036 25.2607 136.962 25.3945 135.974 25.3945 c 4x78
 130.774 25.3945 127.968 21.6836 127.968 13 c 6
 127.968 -217.888 l 7
 127.968 -225.888 122.23 -230.329 115.73 -230.329 c 4
 39.1533 -230.329 l 5
 39.1533 467 l 4
 39.0967 471.172 40 474 45 474 c 4
 127.994 474 l 13
 127.994 436 l 30
 127.994 436 130.107 428.33 133.994 429.569 c 6
 260.794 470 l 6
 273.78 473.82 295.618 474.441 305.549 474.441 c 4
 372.674 474.441 423.817 409.505 423.817 353.16 c 6
 423.817 118 l 6
 423.817 52 370.898 -6.9541 310.242 -6.9541 c 4
 299.778 -6.9541 277.443 -5.93555 268.794 -4 c 6xb8
305.21 88.6328 m 6
 322.018 88.6328 335.006 103.912 335.006 124.922 c 6
 335.006 347.431 l 6
 335.006 376.08 312.086 382.766 306.738 382.766 c 6
 127.968 382.766 l 5
 127.968 88.6328 l 5
 305.21 88.6328 l 6
EndSplineSet
EndChar

StartChar: l
Encoding: 108 108 19
Width: 206
VWidth: -20
Flags: HW
HStem: 0.954102 56.7402<138.471 175.716>
VStem: 49.6592 126.057<0.954102 57.6894> 49.6592 88.8118<57.6943 691.636>
LayerCount: 2
Fore
SplineSet
94.542 698.086 m 0xa0
 119.372 698.086 138.471 678.032 138.471 654.158 c 2
 138.471 57.6943 l 1
 162.346 57.6943 l 2
 169.985 57.6943 175.716 51.0088 175.716 44.3252 c 2
 175.716 0.954102 l 1
 49.6592 0.954102 l 1xc0
 49.6592 654.158 l 2
 49.6592 678.032 68.7578 698.086 94.542 698.086 c 0xa0
EndSplineSet
EndChar

StartChar: k
Encoding: 107 107 20
Width: 485
VWidth: -20
Flags: HW
HStem: 0.954102 21G<48.7031 137.517>
VStem: 48.7031 88.8139<0.954102 238.744 339.971 662.004>
LayerCount: 2
Fore
SplineSet
137.517 707.636 m 1
 137.517 339.971 l 1
 363.972 500.407 l 2
 368.746 502.316 377.341 506.137 384.98 506.137 c 0
 400.26 506.137 415.54 497.542 423.179 483.217 c 0
 426.999 477.487 428.909 469.848 428.909 460.299 c 0
 428.909 445.018 422.224 430.692 407.901 422.1 c 2
 246.002 316.096 l 1
 459.469 32.4697 l 1
 425.089 4.77539 l 2
 416.494 -1.91016 406.946 -5.72949 397.396 -5.72949 c 0
 384.026 -5.72949 370.656 0 362.062 10.5049 c 2
 184.883 273.123 l 1
 137.517 238.744 l 1
 137.517 0.954102 l 1
 48.7031 0.954102 l 1
 48.7031 584.444 l 2
 48.7031 657.978 89.7686 698.086 137.517 707.636 c 1
EndSplineSet
EndChar

StartChar: j
Encoding: 106 106 21
Width: 223
VWidth: -20
Flags: HW
HStem: 597.814 89.7679<79.6789 156.513>
VStem: 72.5781 90.7229<-113.641 468.235 604.357 680.477>
LayerCount: 2
Fore
SplineSet
163.301 641.743 m 0
 163.301 615.959 142.291 597.814 116.507 597.814 c 0
 90.7227 597.814 72.5781 619.778 72.5781 641.743 c 0
 72.5781 668.482 94.542 687.582 116.507 687.582 c 0
 142.291 687.582 163.301 667.527 163.301 641.743 c 0
116.507 475.577 m 0
 142.291 475.577 162.346 454.567 162.346 429.738 c 2
 162.346 -59.208 l 2
 162.346 -91.6777 148.976 -106.002 142.291 -113.643 c 2
 24.8281 -220.599 l 1
 23.874 -221.555 l 2
 10.5049 -237.789 -0.954102 -238.744 -7.63965 -238.744 c 0
 -9.5498 -238.744 -13.3701 -238.744 -13.3701 -238.744 c 2
 -21.0088 -236.834 -30.5596 -231.104 -30.5596 -221.555 c 0
 -30.5596 -219.645 -30.5596 -215.823 -27.6943 -211.049 c 1
 49.6592 -129.877 l 1
 51.5693 -127.968 l 2
 65.8936 -106.957 72.5781 -95.4971 72.5781 -65.8936 c 0
 72.5781 -63.0273 72.5781 -61.1182 72.5781 -59.208 c 2
 72.5781 -49.6592 l 1
 72.5781 429.738 l 2
 72.5781 454.567 93.5869 475.577 116.507 475.577 c 0
EndSplineSet
EndChar

StartChar: comma
Encoding: 44 44 22
Width: 298
VWidth: 0
Flags: HW
HStem: -149.426 253.069
VStem: 132.796 49.659<-62.8223 -1.4043>
LayerCount: 2
Fore
SplineSet
131.842 103.643 m 4
 160.49 103.643 182.455 80.7227 182.455 52.0732 c 6
 182.455 -0.450195 l 6
 182.455 -20.5049 176.725 -39.6035 170.04 -50.1094 c 6
 105.102 -141.786 l 6
 103.192 -143.696 103.192 -143.696 100.326 -145.606 c 4
 98.417 -148.471 93.6426 -149.426 88.8672 -149.426 c 4
 81.2266 -149.426 77.4072 -145.606 77.4072 -144.65 c 4
 77.4072 -143.696 79.3174 -141.786 80.2725 -139.877 c 6
 81.2266 -138.922 l 5
 123.246 -57.749 l 6
 127.066 -52.0195 132.796 -40.5596 132.796 -27.1895 c 4
 132.796 -24.3252 132.796 -19.5498 132.796 -17.6396 c 6
 130.886 -1.4043 l 5
 115.606 3.37012 l 6
 95.5518 10.0537 80.2725 29.1533 80.2725 52.0732 c 4
 80.2725 80.7227 104.147 103.643 131.842 103.643 c 4
EndSplineSet
EndChar

StartChar: y
Encoding: 121 121 23
Width: 430
VWidth: -20
Flags: HW
LayerCount: 2
Fore
SplineSet
63.0273 473.667 m 0
 75.2523 473.667 89.0031 464.118 95.1151 448.838 c 2
 205.129 160.436 l 1
 324.053 448.838 l 2
 330.739 464.118 346.017 473.667 363.207 473.667 c 0
 368.937 473.667 375.621 472.712 382.307 468.892 c 0
 398.54 462.209 407.136 446.928 407.136 429.738 c 0
 407.136 424.01 406.182 416.369 403.316 410.64 c 2
 142.482 -211.049 l 2
 135.606 -228.239 123.382 -236.834 110.395 -236.834 c 0
 105.047 -236.834 99.6991 -234.924 95.1151 -233.015 c 2
 62.0732 -211.049 l 1
 173.805 78.3086 l 1
 159.289 89.7686 l 2
 153.941 94.542 149.357 100.272 146.302 108.867 c 2
 22.9189 410.64 l 2
 19.0986 416.369 18.1455 424.01 18.1455 429.738 c 0
 18.1455 446.928 27.6943 462.209 42.9736 468.892 c 0
 49.6592 472.712 56.3447 473.667 62.0732 473.667 c 0
 63.0273 473.667 63.0273 473.667 63.0273 473.667 c 0
EndSplineSet
EndChar

StartChar: c
Encoding: 99 99 24
Width: 464
VWidth: -20
Flags: HW
HStem: 0.954102 86.9043<127.113 346.151> 383.449 88.814<127.109 399.123>
VStem: 34.3789 88.8131<89.6767 138.471 138.471 379.651>
LayerCount: 2
Fore
SplineSet
166.738 472.263 m 2
 347.228 472.263 l 2
 403.573 472.263 422.672 417.829 429.356 383.449 c 1
 152.987 383.449 l 2
 136.179 383.449 123.192 368.17 123.192 348.115 c 2
 123.192 124.147 l 2
 123.192 104.093 136.179 87.8584 152.987 87.8584 c 2
 429.356 87.8584 l 1
 429.356 56 339.1 -1.2334 217.113 0 c 6
 166.738 0.954102 l 2
 84.0518 2.72656 34.3789 58.2529 34.3789 138.471 c 2
 34.3789 333.791 l 2
 34.3789 414.01 84.0381 472.263 166.738 472.263 c 2
EndSplineSet
EndChar

StartChar: w
Encoding: 119 119 25
Width: 673
VWidth: -20
Flags: HW
HStem: 0.954102 21G<191.54 264.365 407.615 480.599>
LayerCount: 2
Fore
SplineSet
366.381 338.062 m 6
 380.133 338.062 386.94 329.384 389.299 320.871 c 2
 413.386 233.969 l 2
 419.971 215.823 440.071 131.201 440.071 131.201 c 2
 440.92 127.37 444.502 126.018 447.139 126.018 c 0
 449.139 126.018 452.7 127.687 453.765 131.201 c 2
 453.765 131.201 471.486 210.312 480.639 233.015 c 2
 570.912 456.928 l 2
 577.597 472.209 593.83 481.758 610.066 482.712 c 2
 616.751 482.712 623.436 481.758 629.165 477.938 c 0
 645.4 470.299 654.95 454.062 654.95 437.829 c 0
 654.95 431.144 653.993 425.414 651.13 419.685 c 2
 472.045 0.954102 l 1
 413.791 0.954102 l 1
 335.057 255.933 l 1
 258.348 0.954102 l 1
 200.094 0.954102 l 1
 21.0088 419.685 l 2
 18.1455 425.414 17.1895 431.144 17.1895 437.829 c 0
 17.1895 454.062 26.7393 470.299 42.9736 477.938 c 0
 48.7031 481.758 55.3877 482.712 62.0732 482.712 c 2
 78.3086 481.758 94.542 472.209 101.227 456.928 c 2
 191.5 233.015 l 2
 200.653 210.312 218.374 131.201 218.374 131.201 c 2
 219.439 127.687 223 126.018 225 126.018 c 0
 227.637 126.018 231.219 127.37 232.068 131.201 c 2
 232.068 131.201 252.168 215.823 258.753 233.969 c 2
 282.84 320.871 l 2
 285.199 329.384 292.006 338.062 305.758 338.062 c 6
 366.381 338.062 l 6
EndSplineSet
EndChar

StartChar: z
Encoding: 122 122 26
Width: 476
VWidth: -20
Flags: HW
HStem: -4.77539 88.8135<151.842 368.572> 385.811 89.766<60.7639 256.594>
LayerCount: 2
Fore
SplineSet
133.751 475.577 m 6
 344.969 475.577 l 2
 350.112 475.577 349.744 473.667 351.654 473.667 c 0
 357.385 472.712 361.205 468.892 365.024 466.028 c 0
 368.844 459.343 369.798 453.613 369.798 448.838 c 2
 369.798 386.766 l 2
 369.798 385.811 l 0
 369.798 383.9 369.798 381.99 366.934 377.215 c 0
 360.249 370.53 344.969 357.16 335.42 345.701 c 2
 151.842 84.0381 l 1
 389.798 84.0381 l 1
 387.888 42.9736 375.473 -4.77539 314.355 -4.77539 c 2
 61.1182 -4.77539 l 2
 61.1182 -4.77539 63.8975 -4.8623 59.209 -4.77539 c 0
 55.9785 -4.71484 42.9736 4.77539 36.2891 14.3252 c 0
 33.4238 18.1455 33.4238 20.0537 33.4238 20.0537 c 2
 33.4238 82.1279 l 2
 33.4238 84.0381 33.4238 84.0381 33.4238 84.0381 c 0
 33.4238 86.9023 33.4238 87.8584 36.2891 91.6777 c 0
 40.1094 99.3174 47.0791 100.148 66.8477 124.147 c 2
 256.594 385.811 l 1
 33.4785 385.811 l 5
 38.2529 444.063 64.0381 475.577 133.751 475.577 c 6
EndSplineSet
EndChar

StartChar: x
Encoding: 120 120 27
Width: 444
VWidth: -20
Flags: HW
LayerCount: 2
Fore
SplineSet
61.1729 482.083 m 0
 64.9932 482.083 81.2266 482.083 95.5518 465.848 c 2
 216.195 303.502 l 1
 333.591 465.848 l 2
 346.962 482.083 365.106 482.083 367.015 482.083 c 0
 377.52 482.083 388.025 478.263 396.62 471.577 c 0
 412.854 458.209 412.854 440.062 412.854 437.198 c 0
 412.854 426.692 409.035 416.189 401.395 407.594 c 2
 263.563 235.698 l 1
 428.134 32.2891 l 1
 395.666 1.72949 l 2
 387.07 -4.9541 377.52 -8.77539 367.015 -8.77539 c 0
 365.106 -8.77539 346.962 -8.77539 333.591 6.50488 c 2
 216.195 168.85 l 1
 95.5518 6.50488 l 2
 83.1367 -8.77539 64.9932 -8.77539 61.1729 -8.77539 c 0
 51.623 -8.77539 41.1182 -4.9541 32.5244 1.72949 c 0
 17.2441 15.0986 17.2441 32.2891 17.2441 35.1533 c 0
 17.2441 45.6592 20.1094 55.208 27.749 63.8027 c 2
 168.829 235.698 l 1
 27.749 407.594 l 2
 20.1094 416.189 17.2441 426.692 17.2441 437.198 c 0
 17.2441 440.062 17.2441 458.209 32.5244 471.577 c 0
 41.1182 478.263 50.668 482.083 61.1729 482.083 c 0
EndSplineSet
EndChar

StartChar: exclam
Encoding: 33 33 28
Width: 333
VWidth: 0
Flags: HW
HStem: -4.08105 90.7236<89.6807 168.303>
VStem: 83.1924 91.6766<2.97994 79.537 194.924 673.352>
LayerCount: 2
Fore
SplineSet
174.869 40.8027 m 0
 174.869 15.9736 154.815 -4.08105 128.076 -4.08105 c 0
 103.246 -4.08105 83.1924 15.9736 83.1924 40.8027 c 0
 83.1924 66.5869 103.246 86.6426 128.076 86.6426 c 0
 154.815 86.6426 174.869 66.5869 174.869 40.8027 c 0
128.076 681.007 m 0
 152.905 681.007 173.914 660.952 173.914 636.122 c 2
 173.914 194.924 l 1
 84.1475 194.924 l 1
 84.1475 636.122 l 2
 84.1475 660.952 104.201 681.007 128.076 681.007 c 0
EndSplineSet
EndChar

StartChar: question
Encoding: 63 63 29
Width: 455
VWidth: 0
Flags: HW
HStem: 1.87402 89.7686<129.345 205.914> 314.151 84.993<211.33 316.821> 597.778 43.929<26.4434 91.4458> 597.778 104.093<154.889 314.349>
VStem: 122.896 89.767<8.47138 84.537 212.924 311.724> 319.62 86.904<402.219 594.763>
LayerCount: 2
Fore
SplineSet
274.546 701.871 m 0xdc
 357.82 701.871 406.524 627.384 406.524 547.165 c 2
 406.524 450.712 l 2
 406.524 371.449 355.909 314.151 274.546 314.151 c 2
 210.753 314.151 l 1
 210.753 212.924 l 1
 122.896 212.924 l 1
 122.896 291.232 l 2
 122.896 356.17 184.969 399.144 231.762 399.144 c 2
 287.533 399.144 l 2
 307.397 399.144 319.62 416.334 319.62 436.389 c 2
 319.62 562.444 l 2
 319.62 585.364 302.049 597.778 290.589 597.778 c 2xdc
 26.4434 597.778 l 1
 26.4434 641.707 l 1xec
 92.3359 666.537 232.526 701.871 274.546 701.871 c 0xdc
212.663 45.8027 m 0
 212.663 20.0195 191.654 1.87402 166.823 1.87402 c 0
 142.949 1.87402 122.896 18.1094 122.896 45.8027 c 0
 122.896 72.542 141.995 91.6426 166.823 91.6426 c 0
 191.654 91.6426 212.663 71.5869 212.663 45.8027 c 0
EndSplineSet
EndChar

StartChar: period
Encoding: 46 46 30
Width: 283
VWidth: 0
Flags: HW
HStem: 1.87402 89.7686<84.1663 161.03>
VStem: 77.3174 90.7226<8.97503 83.9371>
LayerCount: 2
Fore
SplineSet
168.04 45.8027 m 4
 168.04 20.0195 146.076 1.87402 121.246 1.87402 c 4
 94.5068 1.87402 77.3174 23.8389 77.3174 45.8027 c 4
 77.3174 72.542 98.3262 91.6426 121.246 91.6426 c 4
 146.076 91.6426 168.04 71.5869 168.04 45.8027 c 4
EndSplineSet
EndChar

StartChar: colon
Encoding: 58 58 31
Width: 285
VWidth: 0
Flags: HW
HStem: 0.918945 90.7237<104.418 183.513> 384.818 91.679<105.666 182.335>
VStem: 97.4072 92.6328<8.57371 83.9371 393.078 468.842>
LayerCount: 2
Fore
SplineSet
190.04 431.613 m 4
 190.04 406.784 169.985 384.818 144.201 384.818 c 4
 119.372 384.818 97.4072 406.784 97.4072 431.613 c 4
 97.4072 456.441 119.372 476.497 144.201 476.497 c 4
 169.985 476.497 190.04 456.441 190.04 431.613 c 4
190.04 45.8027 m 4
 190.04 20.9736 169.985 0.918945 144.201 0.918945 c 4
 119.372 0.918945 97.4072 20.9736 97.4072 45.8027 c 4
 97.4072 71.5869 119.372 91.6426 144.201 91.6426 c 4
 169.985 91.6426 190.04 71.5869 190.04 45.8027 c 4
EndSplineSet
EndChar

StartChar: semicolon
Encoding: 59 59 32
Width: 277
VWidth: 0
Flags: HW
HStem: 406.818 91.679<86.927 163.194>
VStem: 79.2725 91.6765<414.442 491.436> 131.796 49.659<-52.8223 8.5957>
LayerCount: 2
Fore
SplineSet
130.842 113.643 m 4xc0
 159.49 113.643 181.455 90.7227 181.455 62.0732 c 6
 181.455 9.5498 l 6xa0
 181.455 -10.5049 175.725 -29.6035 169.04 -40.1094 c 6
 104.102 -131.786 l 6
 102.192 -133.696 102.192 -133.696 99.3262 -135.606 c 4
 97.417 -138.471 92.6426 -139.426 87.8672 -139.426 c 4
 80.2266 -139.426 76.4072 -135.606 76.4072 -134.65 c 4
 76.4072 -133.696 78.3174 -131.786 79.2725 -129.877 c 6xc0
 80.2266 -128.922 l 5
 122.246 -47.749 l 6
 126.066 -42.0195 131.796 -30.5596 131.796 -17.1895 c 4
 131.796 -14.3252 131.796 -9.5498 131.796 -7.63965 c 6xa0
 129.886 8.5957 l 5
 114.606 13.3701 l 6
 94.5518 20.0537 79.2725 39.1533 79.2725 62.0732 c 4
 79.2725 90.7227 103.147 113.643 130.842 113.643 c 4xc0
170.949 453.613 m 4xc0
 170.949 428.784 150.896 406.818 124.156 406.818 c 4
 99.3262 406.818 79.2725 428.784 79.2725 453.613 c 4
 79.2725 478.441 99.3262 498.497 124.156 498.497 c 4
 150.896 498.497 170.949 478.441 170.949 453.613 c 4xc0
EndSplineSet
EndChar

StartChar: quotesingle
Encoding: 39 39 33
Width: 201
VWidth: 0
Flags: HW
HStem: 415.018 279.809
VStem: 59.2588 92.7812<578.191 687.424>
LayerCount: 2
Fore
SplineSet
77.5518 461.812 m 1
 59.4072 649.942 l 2
 59.3076 650.976 59.2588 652.006 59.2588 653.03 c 0
 59.2588 675.359 82.4609 694.827 106.201 694.827 c 0
 131.985 694.827 152.04 675.727 152.04 649.942 c 2
 129.121 415.018 l 1
 106.201 416.928 l 2
 91.877 416.928 81.3721 426.479 80.417 439.848 c 2
 77.5518 461.812 l 1
EndSplineSet
EndChar

StartChar: M
Encoding: 77 77 35
Width: 602
VWidth: -20
Flags: HW
HStem: 0.954102 21G<49.6592 138.471 453.571 542.383>
VStem: 49.6592 88.8118<0.954102 524.281> 453.571 88.812<0.954102 524.281>
LayerCount: 2
Fore
SplineSet
94.542 698.086 m 0
 119.372 698.086 127.131 684.295 143.055 658.933 c 2
 296.804 373.395 l 1
 448.986 658.933 l 2
 468.849 682.808 472.669 698.086 498.454 698.086 c 0
 523.284 698.086 542.383 678.032 542.383 654.158 c 2
 542.383 0.954102 l 1
 453.571 0.954102 l 1
 453.571 524.281 l 1
 297.567 253.068 l 2
 296.937 251.972 297.567 252.113 296.804 252.113 c 0
 296.804 252.113 296.039 252.113 296.039 253.068 c 2
 138.471 524.281 l 1
 138.471 0.954102 l 1
 49.6592 0.954102 l 1
 49.6592 654.158 l 2
 49.6592 678.032 68.7578 698.086 94.542 698.086 c 0
EndSplineSet
EndChar

StartChar: N
Encoding: 78 78 36
Width: 585
VWidth: -20
Flags: HW
HStem: 0.954102 21G<49.6592 138.471 468.129 492.48>
VStem: 49.6592 88.8118<0.954102 525.236> 435.66 89.768<172.85 694.268>
LayerCount: 2
Fore
SplineSet
94.542 698.086 m 0
 119.372 698.086 125.102 682.808 143.055 658.933 c 2
 435.66 172.85 l 1
 435.66 667.527 l 2
 436.614 683.762 451.893 698.086 478.634 698.086 c 2
 525.428 698.086 l 1
 525.428 45.8389 l 2
 525.428 20.0537 504.418 0.954102 480.543 0.954102 c 0
 455.715 0.954102 449.984 17.1895 431.84 40.1094 c 2
 138.471 525.236 l 1
 138.471 0.954102 l 1
 49.6592 0.954102 l 1
 49.6592 654.158 l 2
 49.6592 678.032 68.7578 698.086 94.542 698.086 c 0
EndSplineSet
EndChar

StartChar: H
Encoding: 72 72 37
Width: 523
VWidth: -20
Flags: HW
HStem: 0.954102 21G<49.6592 138.471 379.464 468.277> 296.997 88.814<138.471 379.464>
VStem: 49.6592 88.8118<0.954102 296.997 385.811 691.636> 379.464 88.813<0.954102 296.997 385.811 692.182>
LayerCount: 2
Fore
SplineSet
94.542 698.086 m 0
 119.372 698.086 138.471 678.032 138.471 654.158 c 2
 138.471 385.811 l 1
 379.464 385.811 l 1
 379.464 654.158 l 2
 379.464 678.032 398.564 698.086 423.393 698.086 c 2
 468.277 698.086 l 1
 468.277 0.954102 l 1
 379.464 0.954102 l 1
 379.464 296.997 l 1
 138.471 296.997 l 1
 138.471 0.954102 l 1
 49.6592 0.954102 l 1
 49.6592 654.158 l 2
 49.6592 678.032 68.7578 698.086 94.542 698.086 c 0
EndSplineSet
EndChar

StartChar: O
Encoding: 79 79 38
Width: 510
VWidth: -20
Flags: HW
HStem: 0.954102 88.8145<136.437 378.549> 609.274 88.812<136.437 377.708>
VStem: 43.9287 89.7673<91.8456 139.426 139.426 606.74> 382.054 89.7676<91.8456 606.74>
LayerCount: 2
Fore
SplineSet
173.423 698.086 m 2
 340.734 698.086 l 2
 407.966 698.086 470.841 636.014 470.994 558.66 c 2
 471.821 139.426 l 2
 471.821 63.0273 408.793 0.954102 341.562 0.954102 c 2
 173.423 0.954102 l 2
 106.002 0.954102 43.9287 63.0273 43.9287 139.426 c 2
 43.9287 558.66 l 2
 43.9287 636.013 106.002 698.086 173.423 698.086 c 2
352.194 609.274 m 2
 162.727 609.274 l 2
 145.92 609.274 133.696 593.039 133.696 572.985 c 2
 133.696 126.058 l 2
 133.696 106.002 145.92 89.7686 162.727 89.7686 c 2
 353.021 89.7686 l 2
 369.83 89.7686 382.054 106.002 382.054 126.058 c 2
 381.226 572.985 l 2
 381.188 593.038 369.002 609.274 352.194 609.274 c 2
EndSplineSet
EndChar

StartChar: P
Encoding: 80 80 39
Width: 475
VWidth: -20
Flags: HW
HStem: 0.954102 21G<49.6592 138.471> 296.042 89.769<138.471 321.885> 607.364 90.722<138.471 323.491>
VStem: 49.6592 88.8118<0.954102 296.042 385.811 607.364> 325.646 87.859<389.67 421.144 421.144 603.586>
LayerCount: 2
Fore
SplineSet
138.471 0.954102 m 1
 49.6592 0.954102 l 1
 49.6592 698.086 l 1
 296.615 698.086 l 2
 362.891 698.086 413.505 647.474 413.505 578.715 c 2
 413.505 409.685 l 2
 413.505 335.196 346.655 296.042 301.964 296.042 c 2
 138.471 296.042 l 1
 138.471 0.954102 l 1
295.851 385.811 m 2
 311.894 385.811 325.646 401.089 325.646 421.144 c 2
 325.646 572.03 l 2
 325.646 600.68 302.727 607.364 296.615 607.364 c 2
 138.471 607.364 l 1
 138.471 385.811 l 1
 295.851 385.811 l 2
EndSplineSet
EndChar

StartChar: C
Encoding: 67 67 40
Width: 467
VWidth: 0
Flags: HW
HStem: 1.91016 88.8125<136.437 393.221> 610.229 88.813<136.437 381.795>
VStem: 43.9287 89.7673<92.8736 141.336 141.336 608.077>
LayerCount: 2
Fore
SplineSet
173.423 699.042 m 2
 338.378 699.042 l 2
 378.487 698.086 406.181 655.112 411.91 610.229 c 1
 162.727 610.229 l 2
 145.92 610.229 133.696 593.994 133.696 573.94 c 2
 133.696 126.058 l 2
 133.696 106.957 145.92 90.7227 162.727 90.7227 c 2
 424.325 90.7227 l 1
 415.732 45.8389 388.035 1.91016 349.837 1.91016 c 2
 173.423 1.91016 l 2
 106.002 1.91016 43.9287 63.0273 43.9287 141.336 c 2
 43.9287 559.615 l 2
 43.9287 637.923 106.002 699.042 173.423 699.042 c 2
411.91 610.229 m 1
EndSplineSet
EndChar

StartChar: Q
Encoding: 81 81 41
Width: 526
VWidth: -20
Flags: HW
HStem: 0.954102 88.8145<135.924 321.463> 609.274 88.812<135.924 376.998>
VStem: 43.9287 88.8123<91.8456 139.426 139.426 606.74> 381.054 87.8574<144.201 606.739>
LayerCount: 2
Fore
SplineSet
351.239 609.274 m 2
 162.536 609.274 l 2
 145.729 609.274 132.741 593.039 132.741 572.985 c 2
 132.741 126.058 l 2
 132.741 106.002 145.729 89.7686 162.536 89.7686 c 2
 321.463 89.7686 l 1
 326.238 106.957 l 2
 330.059 120.326 341.326 141.336 362.719 142.291 c 2
 381.054 144.201 l 1
 381.035 572.985 l 2
 381.034 593.039 367.283 609.274 351.239 609.274 c 2
397.289 18.1455 m 1
 385.83 11.46 l 2
 371.121 4.77539 355.843 0.954102 340.562 0.954102 c 2
 172.467 0.954102 l 2
 106.002 0.954102 43.9287 63.0273 43.9287 139.426 c 2
 43.9287 558.66 l 2
 43.9287 636.013 106.002 698.086 172.467 698.086 c 2
 340.543 698.086 l 2
 406.819 698.086 468.89 636.013 468.893 558.66 c 2
 468.911 139.426 l 2
 468.911 120.326 465.092 103.137 458.406 85.9482 c 2
 452.677 70.668 l 1
 556.769 -32.4697 l 1
 541.49 -49.6592 l 2
 535.76 -56.3447 529.075 -59.208 521.435 -59.208 c 0
 516.66 -59.208 510.931 -58.2529 507.11 -55.3877 c 2
 397.289 18.1455 l 1
EndSplineSet
EndChar

StartChar: R
Encoding: 82 82 42
Width: 449
VWidth: -20
Flags: HW
HStem: 0.954102 21G<49.6592 138.471> 296.042 89.769<138.471 263> 607.364 90.722<138.471 322.119>
VStem: 49.6592 88.8118<0.954102 296.042 385.811 607.364> 325.646 89.769<387.654 421.144 421.144 603.86>
LayerCount: 2
Fore
SplineSet
49.6592 698.086 m 1
 296.615 698.086 l 2
 367.666 698.086 415.415 648.429 415.415 578.715 c 2
 415.415 409.685 l 2
 415.415 386.766 407.773 342.837 358.115 314.188 c 2
 339.972 303.682 l 1
 458.388 17.1895 l 1
 419.234 -3.82031 l 2
 412.549 -5.72949 407.773 -7.63965 402.044 -7.63965 c 0
 384.854 -7.63965 368.62 3.82031 361.935 20.0537 c 2
 263 296.042 l 1
 138.471 296.042 l 1
 138.471 0.954102 l 1
 49.6592 0.954102 l 1
 49.6592 698.086 l 1
296.615 607.364 m 2
 138.471 607.364 l 1
 138.471 385.811 l 1
 296.615 385.811 l 2
 311.894 385.811 325.646 401.089 325.646 421.144 c 2
 325.646 572.03 l 2
 325.646 600.68 302.727 607.364 296.615 607.364 c 2
EndSplineSet
EndChar

StartChar: T
Encoding: 84 84 43
Width: 494
VWidth: -20
Flags: HW
HStem: 0.954102 21G<210.029 298.843> 609.274 88.812<23.678 210.029 298.843 484.69>
VStem: 210.029 88.814<0.954102 609.274>
LayerCount: 2
Fore
SplineSet
62.0732 698.086 m 2
 446.989 698.086 l 2
 471.819 698.086 490.918 678.032 490.918 654.158 c 2
 490.918 609.274 l 1
 298.843 609.274 l 1
 298.843 0.954102 l 1
 210.029 0.954102 l 1
 210.029 609.274 l 1
 17.1895 609.274 l 1
 17.1895 654.158 l 2
 17.1895 678.032 37.2441 698.086 62.0732 698.086 c 2
EndSplineSet
EndChar

StartChar: V
Encoding: 86 86 44
Width: 548
VWidth: -20
Flags: HW
HStem: 0.954102 21G<193.679 311.08>
LayerCount: 2
Fore
SplineSet
55.3877 704.771 m 0
 74.4883 704.771 90.7227 692.357 97.4072 674.212 c 2
 253.194 147.066 l 1
 386.635 674.212 l 2
 392.364 692.357 408.599 704.771 427.698 704.771 c 0
 433.428 704.771 437.248 702.861 442.979 701.906 c 2
 448.708 699.042 l 1
 488.816 683.762 l 1
 305.717 0.954102 l 1
 199.715 0.954102 l 1
 5.72949 643.653 l 2
 4.77539 648.429 3.82031 653.204 3.82031 657.978 c 0
 3.82031 677.078 15.2793 693.312 34.3789 699.042 c 2
 42.0195 701.906 l 2
 45.8389 702.861 49.6592 704.771 55.3877 704.771 c 0
EndSplineSet
EndChar

StartChar: A
Encoding: 65 65 45
Width: 487
VWidth: 0
Flags: HW
HStem: 0 21G<55.8657 77.5442 407.583 416.368> 166.166 89.767<163.11 322.782>
VStem: 19.0986 83.6558<7.85082 46.7939>
LayerCount: 2
Fore
SplineSet
238.745 702.861 m 6
 285.347 702.861 l 5
 466.028 62.0732 l 5
 466.028 57.2979 466.983 52.5244 466.983 47.749 c 4
 466.983 20.0537 452.658 0.954102 416.368 0 c 4
 415.414 0 414.459 -0.954102 414.459 -0.954102 c 5
 400.707 -0.954102 387.719 10.5049 382.373 29.6035 c 6
 346.465 166.166 l 5
 139.426 166.166 l 5
 102.754 29.6035 l 6
 98.1712 10.5049 84.4203 0 70.668 0 c 4
 68.7578 0 l 4
 42.9736 0 19.0986 18.1455 19.0986 46.7939 c 4
 19.0986 51.5693 19.0986 56.3447 20.0537 61.1182 c 6
 185.265 643.653 l 6
 198.252 688.537 217.351 702.861 238.745 702.861 c 6
322.782 255.933 m 5
 243.327 555.796 l 5
 163.11 255.933 l 5
 322.782 255.933 l 5
EndSplineSet
EndChar

StartChar: G
Encoding: 71 71 46
Width: 453
VWidth: -20
Flags: HW
HStem: -0.000548623 89.7691<135.924 361.012> 296.997 64.02<295.31 361.012> 609.274 88.812<135.924 404.834>
VStem: 43.9287 88.8123<91.7286 606.74> 361.012 87.858<89.7686 296.997>
LayerCount: 2
Fore
SplineSet
172.467 -0.000548623 m 2
 106.003 -0.000548623 43.9287 63.0273 43.9287 139.426 c 2
 43.9287 558.66 l 2
 43.9287 636.013 106.002 698.086 172.467 698.086 c 2
 361.012 698.086 l 2
 402.076 697.132 428.816 654.158 434.545 609.274 c 1
 162.536 609.274 l 2
 145.73 609.275 132.741 593.039 132.741 572.985 c 2
 132.741 126.058 l 2
 132.741 106.002 145.729 89.7686 162.536 89.7686 c 2
 361.012 89.7686 l 1
 361.012 296.997 l 1
 310.591 296.997 l 2
 307.534 296.997 295.31 296.997 295.31 318.963 c 2
 295.31 361.017 l 1
 448.87 361.017 l 1
 448.87 45.8389 l 18
 448.87 18.5855 432.037 -0.000548623 398.746 -0.000548623 c 2
 172.467 -0.000548623 l 2
EndSplineSet
EndChar

StartChar: U
Encoding: 85 85 47
Width: 504
VWidth: -20
Flags: HW
HStem: 0.954102 88.8145<139.892 353.571>
VStem: 47.749 89.768<92.6567 697.571> 356.015 89.767<92.6567 692.966>
LayerCount: 2
Fore
SplineSet
93.5869 702.861 m 0
 114.597 702.861 137.517 691.402 137.517 659.887 c 2
 137.517 126.058 l 2
 137.517 105.047 151.268 89.7686 165.783 89.7686 c 2
 326.984 89.7686 l 2
 343.791 89.7686 356.015 106.957 356.015 126.058 c 2
 356.015 654.158 l 2
 356.015 685.672 378.934 698.086 399.942 698.086 c 0
 401.854 698.086 l 2
 445.782 698.086 l 1
 445.782 101.227 l 2
 445.782 39.1533 405.674 0.954102 356.969 0.954102 c 2
 135.606 0.954102 l 2
 86.9023 0.954102 47.749 39.1533 47.749 101.227 c 2
 47.749 659.887 l 2
 48.7031 696.177 77.3525 702.861 93.5869 702.861 c 0
EndSplineSet
EndChar

StartChar: S
Encoding: 83 83 48
Width: 475
VWidth: -20
Flags: HW
HStem: 0 88.3086<74.4878 385.597> 315.143 89.766<137.449 384.587> 609.778 88.308<137.824 414.297>
VStem: 45.8389 87.8571<408.15 606.408> 388.101 89.768<92.2545 124.597 124.597 311.295>
LayerCount: 2
Fore
SplineSet
45.8389 610.229 m 2
 45.8389 655.112 84.0381 698.086 157.571 698.086 c 2
 319.766 698.086 l 2
 357.202 697.132 383.94 666.122 389.67 609.778 c 1
 170.94 609.778 l 2
 148.976 609.778 133.696 592.589 133.696 572.534 c 2
 133.696 440.243 l 2
 133.696 433.559 141.336 404.909 169.985 404.909 c 0
 170.94 404.909 170.94 404.909 170.94 404.909 c 2
 319.002 404.909 l 2
 387.76 404.909 427.869 347.611 427.869 285.537 c 2
 427.869 112.687 l 2
 427.869 36.2891 383.94 0 309.07 0 c 2
 116.507 0 l 2
 82.1279 0 59.208 29.0986 55.3877 88.3086 c 1
 309.07 88.3086 l 2
 315.183 88.3086 338.101 95.9482 338.101 124.597 c 2
 338.101 280.764 l 2
 338.101 300.817 323.586 315.143 309.07 315.143 c 2
 157.571 315.143 l 2
 94.542 315.144 45.8389 359.07 45.8389 419.234 c 2
 45.8389 610.229 l 2
EndSplineSet
EndChar

StartChar: I
Encoding: 73 73 49
Width: 199
VWidth: -20
Flags: HW
HStem: 0.954102 21G<49.6592 138.471>
VStem: 49.6592 88.8118<0.954102 691.636>
LayerCount: 2
Fore
SplineSet
94.542 698.086 m 2
 138.471 698.086 l 1
 138.471 0.954102 l 1
 49.6592 0.954102 l 1
 49.6592 654.158 l 2
 49.6592 678.032 68.7578 698.086 94.542 698.086 c 2
EndSplineSet
EndChar

StartChar: J
Encoding: 74 74 50
Width: 222
VWidth: -20
Flags: HW
VStem: 72.5781 89.7679<-115.261 -49.6592 -36.2891 696.412>
LayerCount: 2
Fore
SplineSet
116.507 702.861 m 0
 142.291 702.861 162.346 682.808 162.346 658.933 c 2
 162.346 -59.208 l 2
 162.346 -91.6777 148.976 -106.002 142.291 -113.643 c 2
 24.8281 -220.599 l 1
 23.874 -221.555 l 2
 10.5049 -237.789 -0.954102 -238.744 -7.63965 -238.744 c 0
 -9.5498 -238.744 -13.3701 -238.744 -13.3701 -238.744 c 2
 -21.0088 -236.834 -30.5596 -231.104 -30.5596 -221.555 c 0
 -30.5596 -219.645 -30.5596 -215.823 -27.6943 -211.049 c 1
 49.6592 -129.877 l 1
 51.5693 -127.968 l 2
 65.8936 -106.957 72.5781 -95.4971 72.5781 -65.8936 c 0
 72.5781 -63.0273 72.5781 -61.1182 72.5781 -59.208 c 2
 72.5781 -49.6592 l 1
 72.5781 658.933 l 2
 72.5781 682.808 93.5869 702.861 116.507 702.861 c 0
72.5781 -49.6592 m 1
 72.5781 -36.2891 l 1
 48.7031 -36.2891 l 1
 72.5781 -59.208 l 1
 72.5781 -49.6592 l 1
EndSplineSet
EndChar

StartChar: L
Encoding: 76 76 51
Width: 472
VWidth: -20
Flags: HW
HStem: 0.954102 88.8145<138.471 444.264>
VStem: 49.6592 88.8118<89.7686 691.636>
LayerCount: 2
Fore
SplineSet
94.542 698.086 m 2
 138.471 698.086 l 1
 138.471 89.7686 l 1
 406.562 89.7686 l 2
 431.392 89.7686 450.492 70.668 450.492 45.8389 c 0
 450.492 20.0537 431.392 0.954102 406.562 0.954102 c 2
 49.6592 0.954102 l 1
 49.6592 654.158 l 2
 49.6592 678.032 68.7578 698.086 94.542 698.086 c 2
EndSplineSet
EndChar

StartChar: B
Encoding: 66 66 52
Width: 473
VWidth: 0
Flags: HW
HStem: 1.91016 88.8125<138.471 342.446> 325.646 65.893<138.471 330.353> 624.554 73.532<138.471 328.995>
VStem: 49.6592 88.8118<90.7227 325.646 391.539 624.554> 332.846 80.769<392.775 622.04> 345.509 89.768<94.6058 126.058 126.058 323.99>
LayerCount: 2
Fore
SplineSet
413.615 448.64 m 2xf8
 413.615 403 388.658 383.786 368.416 378.351 c 2
 357.541 375.431 l 1
 368.416 372.602 l 2
 401.37 368.696 435.277 326 435.277 283.394 c 2
 435.277 114.597 l 2xf4
 435.277 40.1094 368.429 1.91016 321.826 1.91016 c 2
 49.6592 1.91016 l 1
 49.6592 698.086 l 1
 296.615 698.086 l 2
 370.64 698.086 413.615 650.338 413.615 578.715 c 2
 413.615 448.64 l 2xf8
303.815 624.554 m 2
 138.471 624.554 l 1
 138.471 391.539 l 1
 303.815 391.539 l 2
 319.094 391.539 332.846 405.864 332.846 427.829 c 2
 332.846 587.31 l 2xf8
 332.846 616.914 309.927 624.554 303.815 624.554 c 2
317.243 325.646 m 2
 138.471 325.646 l 1
 138.471 90.7227 l 1
 317.243 90.7227 l 2
 332.522 90.7227 345.509 106.002 345.509 126.058 c 2
 345.509 290.312 l 2xf4
 345.509 318.963 322.59 325.646 317.243 325.646 c 2
EndSplineSet
EndChar

StartChar: D
Encoding: 68 68 53
Width: 495
VWidth: 0
Flags: HW
HStem: 0 87.8584<138.471 342.148> 607.364 89.768<138.471 340.869>
VStem: 49.6592 88.8118<87.8584 607.364> 345.509 89.768<89.7989 125.102 125.102 603.221>
LayerCount: 2
Fore
SplineSet
321.826 0 m 6
 49.6592 0 l 5
 49.6592 697.132 l 5
 314.186 697.132 l 6
 378.932 697.132 435.277 638.879 435.277 577.761 c 6
 435.277 112.687 l 6
 435.277 39.1533 367.474 0 321.826 0 c 6
317.243 87.8584 m 6
 332.522 87.8584 345.509 104.093 345.509 125.102 c 6
 345.509 571.075 l 6
 345.509 599.725 322.59 607.364 317.243 607.364 c 6
 138.471 607.364 l 5
 138.471 87.8584 l 5
 317.243 87.8584 l 6
EndSplineSet
EndChar

StartChar: W
Encoding: 87 87 54
Width: 714
VWidth: -20
Flags: HW
HStem: 0.954102 21G<161.512 309.154 428.093 579.105>
LayerCount: 2
Fore
SplineSet
57.2979 702.861 m 0
 58.2529 702.861 l 0
 78.3086 702.861 96.4512 689.492 101.227 668.482 c 2
 238.744 75.4434 l 1
 323.737 460.299 l 2
 324.5 464.118 325.264 466.982 324.5 464.118 c 1
 327.556 472.712 329.848 475.577 332.141 475.577 c 2
 407.775 475.577 l 2
 410.83 475.577 413.122 468.892 415.414 463.163 c 2
 500.98 76.3984 l 1
 638.497 668.482 l 2
 644.226 689.492 661.416 702.861 682.425 702.861 c 0
 685.291 702.861 688.156 702.861 691.975 701.906 c 2
 733.038 691.402 l 1
 574.513 0.954102 l 1
 432.222 0.954102 l 1
 407.775 119.372 l 2
 400.136 169.985 377.006 277.099 375.293 315.979 c 0
 375.049 320.839 372.604 323.964 369.181 323.964 c 0
 365.758 323.964 363.312 320.839 363.068 315.979 c 0
 360.868 276.404 339.78 168.076 331.377 119.372 c 2
 304.638 0.954102 l 1
 166.166 0.954102 l 1
 15.2793 649.384 l 2
 14.3252 651.294 14.3252 655.112 14.3252 658.933 c 0
 14.3252 678.987 27.6943 697.132 47.749 701.906 c 0
 51.5693 702.861 53.4785 702.861 57.2979 702.861 c 0
EndSplineSet
EndChar

StartChar: Y
Encoding: 89 89 55
Width: 546
VWidth: -20
Flags: HW
HStem: 0.954102 21G<188.255 278.022>
VStem: 188.255 89.767<0.954102 306.547>
LayerCount: 2
Fore
SplineSet
18.1455 708.592 m 0
 19.0986 708.592 l 0
 33.4238 708.592 46.7939 702.861 55.3877 689.492 c 2
 224.927 399.179 l 1
 391.218 689.492 l 2
 399.813 702.861 414.138 708.592 428.462 708.592 c 0
 437.057 708.592 445.651 707.636 453.291 701.906 c 2
 485.761 678.032 l 1
 278.022 306.547 l 1
 278.022 0.954102 l 1
 188.255 0.954102 l 1
 188.255 307.502 l 1
 -18.1455 639.833 l 2
 -22.9189 648.429 -26.7393 657.022 -26.7393 664.662 c 0
 -26.7393 678.987 -19.0986 693.312 -7.63965 701.906 c 0
 0.954102 706.682 9.5498 708.592 18.1455 708.592 c 0
EndSplineSet
EndChar

StartChar: X
Encoding: 88 88 58
Width: 566
VWidth: -20
Flags: HW
LayerCount: 2
Fore
SplineSet
67.8027 705.727 m 0
 84.0381 705.727 96.4512 698.086 105.047 686.628 c 2
 264.845 409.685 l 1
 424.833 686.628 l 2
 432.473 698.086 446.797 705.727 461.122 705.727 c 0
 469.718 705.727 478.312 702.861 485.951 697.132 c 0
 498.366 689.492 505.052 676.122 505.052 660.843 c 0
 505.052 653.204 503.142 643.653 498.366 636.013 c 2
 307.628 330.421 l 1
 501.231 19.0986 l 1
 464.942 -5.72949 l 2
 457.303 -10.5049 449.663 -13.3701 440.113 -13.3701 c 0
 425.789 -13.3701 411.464 -7.63965 402.869 5.72949 c 2
 264.845 250.203 l 1
 126.058 5.72949 l 2
 118.417 -7.63965 105.047 -14.3252 90.7227 -14.3252 c 0
 82.1279 -14.3252 74.4883 -11.46 65.8936 -7.63965 c 2
 64.9375 -4.77539 l 2
 52.5244 3.82031 45.8389 17.1895 45.8389 29.6035 c 0
 45.8389 39.1533 47.749 47.749 53.4785 56.3447 c 2
 221.298 330.421 l 1
 32.4697 636.013 l 2
 26.7393 643.653 23.874 653.204 23.874 660.843 c 0
 23.874 676.122 30.5596 689.492 42.9736 697.132 c 0
 51.5693 702.861 59.208 705.727 67.8027 705.727 c 0
EndSplineSet
EndChar

StartChar: E
Encoding: 69 69 59
Width: 489
VWidth: 0
Flags: HW
HStem: 1.91016 88.8125<138.471 444.142> 296.997 89.769<138.471 354.994> 610.229 88.813<138.471 422.261>
VStem: 49.6592 88.8118<90.7227 296.997 386.766 610.229>
LayerCount: 2
Fore
SplineSet
49.6592 699.042 m 5
 428.527 699.042 l 5
 428.527 654.158 l 6
 428.527 630.283 409.429 610.229 383.643 610.229 c 6
 138.471 610.229 l 5
 138.471 386.766 l 5
 354.994 386.766 l 6
 383.643 382.944 400.833 364.801 400.833 341.881 c 4
 400.833 307.502 366.455 297.952 354.994 296.997 c 5
 138.471 296.997 l 5
 138.471 90.7227 l 5
 405.608 90.7227 l 6
 433.303 87.8584 450.492 70.668 450.492 46.7939 c 4
 450.492 22.9189 433.303 3.82031 405.608 1.91016 c 6
 49.6592 1.91016 l 5
 49.6592 699.042 l 5
EndSplineSet
EndChar

StartChar: F
Encoding: 70 70 60
Width: 494
VWidth: -20
Flags: HW
HStem: 0.954102 21G<49.6592 138.471> 296.042 89.769<138.471 342.719> 609.274 88.812<138.471 426.654>
VStem: 49.6592 88.8118<0.954102 296.042 385.811 609.274>
LayerCount: 2
Fore
SplineSet
49.6592 698.086 m 1
 432.92 698.086 l 1
 432.92 654.158 l 2
 432.92 629.329 413.822 609.274 388.036 609.274 c 2
 138.471 609.274 l 1
 138.471 385.811 l 1
 306.547 385.811 l 2
 329.783 385.811 348.882 364.801 348.882 341.881 c 0
 348.882 316.096 329.783 296.042 306.547 296.042 c 2
 138.471 296.042 l 1
 138.471 0.954102 l 1
 49.6592 0.954102 l 1
 49.6592 698.086 l 1
EndSplineSet
EndChar

StartChar: Z
Encoding: 90 90 61
Width: 503
VWidth: -20
Flags: HW
HStem: 0.954102 88.8145<126.058 434.268> 609.274 88.812<62.7283 334.94>
LayerCount: 2
Fore
SplineSet
135.606 698.086 m 2
 417.957 698.086 l 2
 422.732 697.132 422.732 698.086 426.552 697.132 c 0
 430.371 696.177 434.191 693.312 438.011 688.537 c 0
 441.831 683.762 443.741 677.078 443.741 672.303 c 2
 443.741 622.644 l 2
 443.741 609.274 439.921 600.68 430.371 586.354 c 2
 126.058 89.7686 l 1
 455.201 89.7686 l 1
 452.336 48.7031 441.831 0.954102 380.713 0.954102 c 2
 63.0273 0.954102 l 2
 63.0273 0.954102 63.0273 0.954102 62.0732 0.954102 c 0
 56.3447 3.82031 43.9287 10.5049 38.1992 20.0537 c 0
 36.2891 23.874 34.3789 26.7393 34.3789 26.7393 c 2
 34.3789 89.7686 l 2
 34.3789 90.7227 l 0
 34.3789 104.093 42.0195 123.192 59.208 148.976 c 2
 334.94 609.274 l 1
 36.2891 609.274 l 1
 40.1094 667.527 65.8936 698.086 135.606 698.086 c 2
63.0273 0.954102 m 1
 63.0273 0.954102 l 1
EndSplineSet
EndChar

StartChar: K
Encoding: 75 75 62
Width: 509
VWidth: -20
Flags: HW
HStem: 0.954102 21G<49.6592 138.471>
VStem: 49.6592 88.8118<0.954102 281.717 405.864 698.086>
LayerCount: 2
Fore
SplineSet
356.969 686.628 m 2
 366.073 696.177 375.621 699.042 385.171 699.042 c 0
 396.631 699.042 407.136 696.177 417.64 685.672 c 2
 449.155 653.204 l 1
 189.658 345.701 l 1
 470.163 65.8936 l 2
 478.759 57.2979 482.579 46.7939 482.579 34.3789 c 0
 482.579 23.874 478.759 13.3701 470.163 3.82031 c 0
 468.254 0.954102 457.749 -8.5957 439.606 -8.5957 c 0
 427.19 -8.5957 415.731 -3.82031 407.136 3.82031 c 2
 138.471 281.717 l 1
 138.471 0.954102 l 1
 49.6592 0.954102 l 1
 49.6592 698.086 l 1
 138.471 698.086 l 1
 138.471 405.864 l 1
 356.969 686.628 l 2
EndSplineSet
EndChar

StartChar: one
Encoding: 49 49 63
Width: 165
VWidth: 0
Flags: HW
VStem: 38.1992 87.8588<1.91016 439.744>
LayerCount: 2
Fore
SplineSet
126.058 486.083 m 5
 126.058 1.91016 l 5
 38.1992 1.91016 l 5
 38.1992 362.891 l 6
 38.1992 435.468 80.2188 475.577 126.058 486.083 c 5
EndSplineSet
EndChar

StartChar: two
Encoding: 50 50 64
Width: 437
VWidth: 0
Flags: HW
HStem: 0 89.7686<110.776 395.928> 400.135 78.306<75.4968 310.752>
VStem: 313.358 89.767<284.753 370.53>
LayerCount: 2
Fore
SplineSet
403.125 392.494 m 2
 403.125 296.997 l 2
 403.125 271.214 385.936 247.339 365.881 234.924 c 2
 110.776 89.7686 l 1
 417.451 89.7686 l 1
 414.584 48.7031 403.125 0 342.007 0 c 2
 62.0732 0 l 2
 57.2979 0.954102 56.3447 0.954102 52.5244 0.954102 c 0
 42.9736 3.82031 36.2891 9.5498 33.4238 20.0537 c 0
 33.4238 21.0088 33.4238 21.0088 33.4238 26.7393 c 2
 33.4238 100.858 l 2
 33.4238 102.769 l 0
 33.4238 106.587 33.4238 107.542 36.2891 110.407 c 0
 39.1533 118.047 47.749 127.597 64.9375 140.968 c 1
 290.438 276.572 l 2
 293.494 279.438 297.314 281.348 298.078 284.214 c 0
 312.594 295.672 313.358 309.997 313.358 317.638 c 0
 313.358 318.592 313.358 318.592 313.358 319.547 c 2
 313.358 370.53 l 1
 312.594 372.44 l 2
 309.538 387.72 298.842 400.135 284.327 400.135 c 2
 55.3877 400.135 l 1
 61.1182 456.479 87.8584 478.441 128.922 478.441 c 2
 294.258 478.441 l 18
 354.017 478.441 403.125 456 403.125 392.494 c 2
EndSplineSet
EndChar

StartChar: three
Encoding: 51 51 65
Width: 394
VWidth: 0
Flags: HW
HStem: -200.599 87.858<27.6417 249.688> 140.326 59.209<100.272 104.217 104.217 236.621> 422.999 79.264<50.2539 235.838>
VStem: 240.207 87.858<202.045 237.734 237.734 392.44> 255.486 89.768<-107.834 -75.4971 -75.4971 132.054>
LayerCount: 2
Fore
SplineSet
102.69 502.263 m 6xf0
 220.343 502.263 l 6
 288.91 502.263 326.154 461.198 328.065 416.314 c 6
 328.065 206.22 l 6xf0
 328.065 202.399 328.065 196.67 320.424 189.985 c 4
 317.561 186.166 310.875 183.301 309.92 182.346 c 6
 261.216 155.606 l 5
 312.785 138.417 l 6
 331.885 132.687 345.254 101.173 345.254 82.0732 c 6
 345.254 -77.4072 l 6
 345.254 -153.806 298.46 -200.599 227.219 -200.599 c 6
 67.8027 -200.599 l 6
 23.874 -200.599 9.5498 -147.121 5.72949 -112.741 c 5
 87.8584 -112.741 157.697 -112.741 223.398 -112.741 c 4
 240.207 -111.786 255.486 -94.5967 255.486 -75.4971 c 6
 255.486 104.993 l 6xe8
 255.486 119.317 241.162 140.326 223.398 140.326 c 6
 103.455 140.326 l 6
 97.4072 142.237 97.4072 142.237 94.542 143.192 c 4
 81.1729 149.877 75.4434 163.246 76.3984 171.842 c 4
 76.3984 176.616 76.3984 177.571 78.3086 181.392 c 4
 82.1279 187.121 89.7686 195.716 100.272 199.535 c 4
 101.162 199.535 l 6
 102.69 199.535 103.455 199.535 103.455 199.535 c 6
 103.455 200.49 104.218 200.49 104.218 200.49 c 5
 210.411 200.49 l 6
 225.691 200.49 240.207 215.771 240.207 237.734 c 6
 240.207 392.44 l 5
 238.679 396.261 l 6
 235.623 410.586 225.691 422.999 211.175 422.999 c 6
 28.6494 422.999 l 5
 34.3789 479.343 62.0732 501.308 102.69 502.263 c 6xf0
5.72949 -112.741 m 5
 4.77539 -103.192 4.77539 -94.5967 4.77539 -89.8223 c 4
 4.77539 -88.8672 4.77539 -88.8672 4.77539 -88.8672 c 5
 -19.0986 -112.741 l 5
 5.72949 -112.741 l 5
328.065 416.314 m 5
 329.975 384.801 l 5
 360.533 396.261 l 5
 328.065 419.179 l 5
 328.065 416.314 l 5
EndSplineSet
EndChar

StartChar: four
Encoding: 52 52 66
Width: 454
VWidth: 0
Flags: HW
HStem: 29.9102 63.0273<87.8584 255.486 345.254 430.347>
VStem: 255.486 89.768<-200.239 29.9102 92.9375 370.837>
LayerCount: 2
Fore
SplineSet
301.325 503.577 m 4
 325.199 503.577 345.254 484.479 345.254 458.692 c 6
 345.254 91.0273 l 5
 402.553 91.0273 l 6
 418.787 91.0273 432.157 77.6592 432.157 60.4697 c 6
 432.157 29.9102 l 5
 345.254 29.9102 l 5
 345.254 -200.239 l 5
 255.486 -200.239 l 5
 255.486 29.9102 l 5
 46.7939 29.9102 l 6
 24.8281 29.9102 7.63965 50.9189 7.63965 73.8389 c 4
 7.63965 81.4785 9.5498 90.0732 14.3252 96.7578 c 6
 255.486 476.838 l 6
 258.351 480.658 262.171 482.567 264.081 485.434 c 6
 265.036 486.389 l 5
 265.991 488.299 l 6
 274.586 497.848 287.002 503.577 301.325 503.577 c 4
255.486 92.9375 m 5
 255.486 370.837 l 5
 87.8584 92.9375 l 5
 255.486 92.9375 l 5
EndSplineSet
EndChar

StartChar: five
Encoding: 53 53 67
Width: 469
VWidth: 0
Flags: HW
HStem: -203.835 76.093<71.0708 320.05> 122.537 60.507<142.848 319.17> 400.319 76.093<145.313 363.275>
VStem: 57.5869 85.2611<183.044 400.268> 321.802 85.26<-124.323 -93.8223 -93.8223 121.133>
LayerCount: 2
Fore
SplineSet
57.5869 392.069 m 2
 58.5039 436.075 93.3418 476.412 160.45 476.412 c 2
 313.002 476.412 l 2
 351.139 476.412 376.808 454.41 383.226 400.319 c 1
 142.848 400.319 l 1
 142.848 183.044 l 1
 304.201 183.044 l 2
 370.391 183.044 407.062 128.037 407.062 67.5303 c 2
 407.062 -95.6553 l 2
 407.062 -168.998 366.724 -203.835 294.665 -203.835 c 2
 115.345 -203.835 l 2
 82.3389 -203.835 60.3369 -185.5 54.8359 -127.742 c 1
 294.665 -127.742 l 2
 299.798 -127.742 321.802 -121.325 321.802 -93.8223 c 2
 321.802 89.5332 l 2
 321.802 109.701 308.6 122.537 294.665 122.537 c 2
 57.5869 122.537 l 1
 57.5869 392.069 l 2
EndSplineSet
EndChar

StartChar: six
Encoding: 54 54 68
Width: 476
VWidth: 0
Flags: HW
HStem: 1.91016 95.497<136.687 337.552> 383.9 87.858<136.119 338.262> 635.059 79.262<137.108 371.632>
VStem: 45.8389 87.8571<100.099 141.336 141.336 382.599 466.028 633.803> 340.734 88.814<100.099 382.31>
LayerCount: 2
Fore
SplineSet
310.939 383.9 m 6
 162.727 383.9 l 6
 147.448 383.9 133.696 368.62 133.696 348.566 c 6
 133.696 134.65 l 6
 133.696 114.597 147.448 97.4072 162.727 97.4072 c 6
 310.939 97.4072 l 6
 327.748 97.4072 340.734 114.597 340.734 134.65 c 6
 340.734 348.566 l 6
 340.734 368.62 327.748 383.9 310.939 383.9 c 6
158.144 714.321 m 6
 331.567 714.321 l 6
 373.204 714.321 386.574 667.527 391.348 635.059 c 5
 162.727 635.059 l 6
 145.92 635.059 133.696 616.914 133.696 599.725 c 6
 133.696 466.028 l 5
 155.853 468.892 l 6
 161.2 469.848 168.075 471.758 173.423 471.758 c 6
 301.009 471.758 l 6
 369.384 471.758 429.548 427.829 429.548 352.387 c 6
 429.548 141.336 l 6
 429.548 64.9375 367.474 1.91016 301.009 1.91016 c 6
 173.423 1.91016 l 6
 106.002 1.91016 45.8389 64.9375 45.8389 141.336 c 6
 45.8389 591.13 l 6
 45.8389 667.527 91.6777 714.321 158.144 714.321 c 6
391.348 635.059 m 5
 392.303 625.509 392.303 618.823 392.303 612.139 c 4
 416.178 635.059 l 5
 391.348 635.059 l 5
EndSplineSet
EndChar

StartChar: nine
Encoding: 57 57 69
Width: 465
VWidth: 0
Flags: HW
HStem: -199.194 87.858<92.0112 324.592> 45.2793 87.8577<124.623 326.231> 417.72 89.767<124.977 324.918>
VStem: 32.4697 89.7673<135.647 172.291 172.291 416.141> 328.511 88.812<-107.332 52.9189 134.216 416.141>
LayerCount: 2
Fore
SplineSet
122.237 168.471 m 6
 122.237 148.417 134.461 133.137 150.504 133.137 c 6
 299.48 133.137 l 6
 315.523 133.137 328.511 148.417 328.511 168.471 c 6
 328.511 382.387 l 6
 328.511 402.44 315.523 417.72 299.48 417.72 c 6
 150.504 417.72 l 6
 134.461 417.72 122.237 402.44 122.237 382.387 c 6
 122.237 168.471 l 6
303.3 -199.194 m 6
 130.64 -199.194 l 6
 87.8584 -199.194 75.4434 -146.67 70.668 -111.336 c 5
 154.324 -111.336 226.902 -111.336 299.48 -111.336 c 4
 315.523 -111.336 328.511 -93.1924 328.511 -75.0469 c 6
 328.511 52.9189 l 5
 306.357 48.1455 l 6
 300.244 47.1895 294.897 45.2793 288.02 45.2793 c 6
 161.964 45.2793 l 6
 93.5869 45.2793 32.4697 96.8477 32.4697 172.291 c 6
 32.4697 368.062 l 6
 32.4697 445.414 94.542 507.487 161.964 507.487 c 6
 288.02 507.487 l 6
 355.249 507.487 417.323 445.414 417.323 368.062 c 6
 417.323 -76.957 l 6
 417.323 -153.355 370.531 -199.194 303.3 -199.194 c 6
70.668 -111.336 m 5
 70.668 -102.741 68.7578 -94.1475 68.7578 -88.417 c 4
 68.7578 -86.5068 l 5
 45.8389 -111.336 l 5
 70.668 -111.336 l 5
EndSplineSet
EndChar

StartChar: zero
Encoding: 48 48 70
Width: 415
VWidth: 0
Flags: HW
HStem: 0.954102 88.8145<127.665 289.497> 385.811 89.766<128.34 290.026>
VStem: 36.2891 88.8129<90.9102 383.393> 292.413 87.859<91.8456 384.505>
LayerCount: 2
Fore
SplineSet
263.382 385.811 m 6
 154.134 385.811 l 6
 138.089 385.811 125.102 370.53 125.102 349.521 c 6
 125.102 126.058 l 6
 125.102 106.002 138.089 89.7686 154.134 89.7686 c 6
 263.382 89.7686 l 6
 278.663 89.7686 292.413 106.002 292.413 126.058 c 6
 292.413 349.521 l 6
 292.413 370.53 278.663 385.811 263.382 385.811 c 6
165.593 475.577 m 6
 330.612 475.577 l 6
 331.567 475.577 331.567 473.667 332.523 473.667 c 5
 353.531 468.892 380.272 440.243 380.272 411.594 c 6
 380.272 139.426 l 6
 380.272 63.0273 320.108 0.954102 252.686 0.954102 c 6
 112.687 0.954102 l 6
 87.8584 0.954102 36.2891 40.1094 36.2891 76.3984 c 6
 36.2891 335.196 l 6
 36.2891 412.55 97.4072 475.577 165.593 475.577 c 6
332.523 473.667 m 5
 334.433 473.667 332.523 475.577 332.523 473.667 c 5
EndSplineSet
EndChar

StartChar: seven
Encoding: 55 55 71
Width: 449
VWidth: 0
Flags: HW
HStem: 414.82 88.813<33.2995 319.021>
LayerCount: 2
Fore
SplineSet
71.623 503.633 m 6
 377.275 503.633 l 6
 402.104 503.633 421.204 484.533 421.204 458.749 c 6
 421.204 428.19 l 6
 421.204 419.596 421.204 409.092 415.475 396.676 c 6
 415.475 395.722 l 5
 239.06 -182.039 l 6
 234.476 -192.543 223.78 -201.138 213.086 -201.138 c 6
 142.799 -201.138 l 5
 319.021 414.82 l 5
 13.3701 414.82 l 5
 17.1895 462.569 33.4238 503.633 71.623 503.633 c 6
EndSplineSet
EndChar

StartChar: eight
Encoding: 56 56 72
Width: 455
VWidth: 0
Flags: HW
HStem: 1.91016 95.497<132.072 315.389> 342.837 58.252<147.297 302.351> 621.688 85.948<149.21 302.572>
VStem: 39.1533 89.7687<100.099 339.095> 59.208 84.9932<403.076 618.487> 305.401 88.813<403.076 618.487> 320.68 89.769<100.099 341.15>
LayerCount: 2
Fore
SplineSet
184.692 707.636 m 6xe8
 265.674 707.636 l 6
 333.095 707.636 394.214 657.978 394.214 581.58 c 6
 394.214 476.532 l 6xec
 394.214 444.063 383.709 415.414 365.565 391.539 c 6
 348.374 370.53 l 5
 372.249 355.25 l 6
 398.988 341.881 414.269 310.367 414.269 281.717 c 6
 410.449 141.336 l 6
 410.449 64.9375 348.374 1.91016 281.717 1.91016 c 6
 169.412 1.91016 l 6
 101.227 1.91016 39.1533 64.9375 39.1533 141.336 c 6
 39.1533 281.717 l 6xf2
 39.1533 310.367 55.3877 341.881 81.1729 355.25 c 6
 105.047 370.53 l 5
 87.8584 391.539 l 6
 70.668 415.414 59.208 444.063 59.208 476.532 c 6
 59.208 581.58 l 6
 59.208 657.978 120.326 707.636 184.692 707.636 c 6xe8
305.401 586.354 m 6
 305.401 605.455 292.413 621.688 276.37 621.688 c 6
 173.997 621.688 l 6
 157.189 621.688 144.201 605.455 144.201 586.354 c 6
 144.201 437.378 l 6
 144.201 418.279 157.189 401.089 173.997 401.089 c 6
 276.37 401.089 l 6
 292.413 401.089 305.401 418.279 305.401 437.378 c 6
 305.401 586.354 l 6
324.5 306.547 m 6
 324.5 325.646 309.221 342.837 292.413 342.837 c 6
 157.189 342.837 l 6
 141.145 342.837 128.922 325.646 128.922 306.547 c 6
 128.922 134.65 l 6
 128.922 114.597 141.145 97.4072 157.189 97.4072 c 6
 292.413 97.4072 l 6
 308.457 97.4072 320.68 114.597 320.68 134.65 c 6xe2
 324.5 306.547 l 6
EndSplineSet
EndChar

StartChar: acute
Encoding: 180 180 73
Width: 414
VWidth: 0
Flags: HW
HStem: 572.03 169.03
VStem: 78.3086 261.662
LayerCount: 2
Fore
SplineSet
335.196 721.961 m 0
 339.017 716.231 339.971 708.592 339.971 701.906 c 0
 339.971 688.537 334.241 677.078 322.781 670.393 c 2
 108.867 572.985 l 2
 106.002 572.03 104.093 572.03 101.227 572.03 c 0
 95.4971 572.03 89.7686 573.94 86.9023 580.624 c 2
 78.3086 592.084 l 1
 282.672 736.285 l 2
 287.447 740.105 294.132 741.06 301.771 741.06 c 0
 315.143 741.06 328.512 735.33 335.196 721.961 c 0
EndSplineSet
EndChar

StartChar: grave
Encoding: 96 96 74
Width: 414
VWidth: 0
Flags: HW
HStem: 572.03 169.03
VStem: 76.3984 258.798
LayerCount: 2
Fore
SplineSet
112.687 741.06 m 0
 124.147 741.06 129.877 737.24 131.786 736.285 c 2
 335.196 592.084 l 1
 328.512 580.624 l 2
 324.691 573.94 318.963 572.03 314.188 572.03 c 0
 313.232 572.03 l 2
 313.232 572.03 311.322 572.03 309.412 572.03 c 1
 90.7227 670.393 l 1
 89.7686 672.303 87.8584 673.258 86.9023 674.212 c 1
 86.9023 674.212 86.9023 673.258 84.9932 676.122 c 0
 82.1279 678.032 78.3086 681.853 76.3984 687.582 c 0
 75.4434 692.357 74.4883 697.132 74.4883 701.906 c 0
 74.4883 708.592 75.4434 716.231 78.3086 721.961 c 0
 85.9482 735.33 99.3174 741.06 112.687 741.06 c 0
86.9023 674.212 m 1
 86.9023 674.212 l 1
EndSplineSet
EndChar

StartChar: dieresis
Encoding: 168 168 75
Width: 380
VWidth: 0
Flags: HW
HStem: 586.778 110.778<50.5301 137.073 232.856 319.987>
VStem: 39.0732 109.823<598.53 685.661> 221.033 110.778<598.53 685.661>
LayerCount: 2
Fore
SplineSet
148.896 641.212 m 0
 148.896 611.608 124.066 586.778 93.5068 586.778 c 0
 62.9482 586.778 39.0732 611.608 39.0732 641.212 c 0
 39.0732 672.727 62.9482 697.556 93.5068 697.556 c 0
 124.066 697.556 148.896 672.727 148.896 641.212 c 0
331.811 641.212 m 0
 331.811 611.608 306.98 586.778 276.421 586.778 c 0
 245.862 586.778 221.033 611.608 221.033 641.212 c 0
 221.033 672.727 245.862 697.556 276.421 697.556 c 0
 306.98 697.556 331.811 672.727 331.811 641.212 c 0
EndSplineSet
EndChar

StartChar: dotlessi
Encoding: 305 305 76
Width: 296
VWidth: 0
Flags: HW
VStem: 75.0469 89.7681<1.87402 469.092>
LayerCount: 2
Fore
SplineSet
120.886 475.542 m 4
 143.806 475.542 164.815 455.487 164.815 431.613 c 6
 164.815 1.87402 l 5
 75.0469 1.87402 l 5
 75.0469 431.613 l 6
 75.0469 455.487 95.1016 475.542 120.886 475.542 c 4
EndSplineSet
EndChar

StartChar: caron
Encoding: 711 711 77
Width: 382
VWidth: 0
Flags: HW
HStem: 581.58 170.941
VStem: 55.3877 327.617
LayerCount: 2
Fore
SplineSet
32.0732 742.971 m 2
 36.8477 749.655 42.5781 752.521 47.3525 752.521 c 0
 50.2188 752.521 52.1279 750.61 54.9932 749.655 c 2
 188.433 659.887 l 1
 322.446 749.655 l 1
 324.356 750.61 326.266 752.521 330.086 752.521 c 0
 335.815 752.521 340.59 748.701 344.41 743.926 c 2
 353.005 729.602 l 1
 203.712 586.354 l 1
 199.129 582.534 193.017 581.58 188.433 581.58 c 0
 182.321 581.58 177.736 583.489 173.152 586.354 c 1
 25.3877 729.602 l 1
 32.0732 742.971 l 2
EndSplineSet
EndChar

StartChar: circumflex
Encoding: 710 710 78
Width: 394
VWidth: 0
Flags: HW
HStem: 574.896 169.985
VStem: 55.3877 327.617
LayerCount: 2
Fore
SplineSet
40.0732 583.489 m 2
 33.3877 597.814 l 1
 181.152 741.06 l 1
 185.736 743.926 190.321 744.881 196.433 744.881 c 0
 201.017 744.881 207.129 743.926 211.712 741.06 c 1
 361.005 597.814 l 1
 352.41 583.489 l 2
 348.59 577.761 343.815 574.896 338.086 574.896 c 0
 336.176 574.896 333.311 574.896 330.446 576.806 c 1
 330.446 576.806 225.464 644.608 203.309 662.753 c 2
 196.433 666.572 l 1
 62.9932 576.806 l 2
 60.1279 574.896 58.2188 574.896 55.3525 574.896 c 0
 50.5781 574.896 44.8477 577.761 40.0732 583.489 c 2
EndSplineSet
EndChar

StartChar: ring
Encoding: 730 730 79
Width: 400
VWidth: 0
Flags: HW
HStem: 573.94 36.289<159.82 243.18> 724.827 34.378<161.798 241.202>
VStem: 108.867 35.334<626.854 707.451> 258.798 35.334<626.854 707.451>
LayerCount: 2
Fore
SplineSet
294.132 667.527 m 0
 294.132 615.959 252.113 573.94 201.5 573.94 c 0
 150.886 573.94 108.867 615.959 108.867 667.527 c 0
 108.867 718.142 150.886 759.205 201.5 759.205 c 0
 252.113 759.205 294.132 718.142 294.132 667.527 c 0
258.798 667.527 m 0
 258.798 698.086 233.015 724.827 201.5 724.827 c 0
 169.985 724.827 144.201 698.086 144.201 667.527 c 0
 144.201 635.059 169.985 610.229 201.5 610.229 c 0
 233.015 610.229 258.798 635.059 258.798 667.527 c 0
EndSplineSet
EndChar

StartChar: breve
Encoding: 728 728 80
Width: 501
VWidth: 0
Flags: HW
HStem: 584.444 63.985<194.537 308.87>
VStem: 93.5869 317.684
LayerCount: 2
Fore
SplineSet
118.417 736.285 m 0
 124.147 736.285 133.696 734.376 138.471 729.602 c 0
 170.94 696.177 196.725 648.429 252.048 648.429 c 0
 306.225 648.429 333.92 696.177 364.479 729.602 c 0
 371.165 734.376 379.758 736.285 386.443 736.285 c 0
 390.264 736.285 393.129 735.33 398.858 734.376 c 0
 398.858 733.42 399.813 733.42 399.813 733.42 c 1
 400.768 733.42 400.768 731.51 400.768 733.42 c 1
 400.768 731.51 400.768 731.51 400.768 731.51 c 1
 411.271 723.871 l 1
 364.479 645.563 318.641 584.444 252.048 584.444 c 0
 194.815 584.444 139.426 635.059 93.5869 723.871 c 1
 104.093 731.51 l 2
 105.047 733.42 105.047 733.42 106.002 734.376 c 0
 106.957 734.376 l 1
 109.822 735.33 114.597 736.285 118.417 736.285 c 0
EndSplineSet
EndChar

StartChar: periodcentered
Encoding: 183 183 82
Width: 285
VWidth: 0
Flags: HW
HStem: 316.096 140.383<94.6619 193.382>
VStem: 74.4883 139.426<335.456 436.664>
LayerCount: 2
Fore
SplineSet
213.914 385.811 m 4
 213.914 347.611 182.399 316.096 144.201 316.096 c 4
 105.047 316.096 74.4883 347.611 74.4883 385.811 c 4
 74.4883 424.01 105.047 456.479 144.201 456.479 c 4
 182.399 456.479 213.914 424.01 213.914 385.811 c 4
EndSplineSet
EndChar

StartChar: parenright
Encoding: 41 41 83
Width: 396
VWidth: 0
Flags: HW
VStem: 127.625 87.858<-93.5641 -37.2441 -13.3701 530.966 554.84 611.764>
LayerCount: 2
Fore
SplineSet
46.4512 734.376 m 4
 47.4072 734.376 l 4
 54.0928 734.376 65.5518 733.42 78.9219 717.187 c 6
 79.877 716.231 l 5
 197.339 609.274 l 6
 212.618 593.039 215.483 574.896 215.483 554.84 c 6
 215.483 -37.2441 l 6
 215.483 -57.2979 212.618 -75.4434 197.339 -90.7227 c 6
 79.877 -198.635 l 5
 78.9219 -199.591 l 6
 65.5518 -214.869 54.0928 -215.823 47.4072 -215.823 c 4
 45.4971 -215.823 41.6777 -214.869 41.6777 -214.869 c 6
 34.0381 -213.914 24.4883 -208.184 24.4883 -199.591 c 4
 24.4883 -196.725 24.4883 -192.905 27.3525 -189.085 c 5
 104.706 -106.957 l 5
 106.616 -105.047 l 6
 120.94 -84.9932 127.625 -72.5781 127.625 -42.9736 c 4
 127.625 -40.1094 127.625 -38.1992 127.625 -37.2441 c 6
 127.625 -27.6943 l 5
 127.625 545.29 l 5
 127.625 554.84 l 6
 127.625 555.796 127.625 558.66 127.625 561.525 c 4
 127.625 584.444 123.806 597.814 106.616 622.644 c 6
 104.706 625.509 l 5
 27.3525 706.682 l 5
 24.4883 711.456 22.5781 715.276 24.4883 717.187 c 4
 25.4434 729.602 36.9023 733.42 41.6777 733.42 c 4
 43.5869 733.42 41.6777 734.376 46.4512 734.376 c 4
127.625 545.29 m 5
 127.625 554.84 l 5
 103.751 530.966 l 5
 127.625 530.966 l 5
 127.625 545.29 l 5
127.625 -27.6943 m 5
 127.625 -13.3701 l 5
 103.751 -13.3701 l 5
 127.625 -37.2441 l 5
 127.625 -27.6943 l 5
EndSplineSet
EndChar

StartChar: parenleft
Encoding: 40 40 84
Width: 396
VWidth: 0
Flags: HW
VStem: 95.6064 85.9486<-94.095 612.093>
LayerCount: 2
Fore
SplineSet
263.682 734.376 m 4
 265.592 734.376 269.412 733.42 269.412 733.42 c 6
 280.871 730.556 286.602 723.871 286.602 717.187 c 4
 286.602 715.276 285.646 711.456 283.736 706.682 c 5
 204.473 625.509 l 5
 203.52 622.644 l 6
 190.148 602.589 181.555 591.13 181.555 561.525 c 4
 181.555 558.66 181.555 555.796 181.555 554.84 c 6
 181.555 545.29 l 5
 181.555 -27.6943 l 5
 181.555 -37.2441 l 6
 181.555 -38.1992 181.555 -40.1094 181.555 -42.9736 c 4
 181.555 -66.8477 187.284 -80.2188 203.52 -105.047 c 6
 204.473 -106.957 l 5
 283.736 -189.085 l 5
 285.646 -192.905 286.602 -196.725 286.602 -199.591 c 4
 285.646 -211.049 273.232 -214.869 267.502 -214.869 c 4
 266.547 -215.823 267.502 -215.823 263.682 -215.823 c 4
 256.997 -215.823 244.582 -214.869 231.214 -199.591 c 6
 231.214 -198.635 l 5
 113.751 -90.7227 l 6
 98.4707 -75.4434 95.6064 -57.2979 95.6064 -37.2441 c 6
 95.6064 554.84 l 6
 95.6064 574.896 98.4707 593.039 113.751 609.274 c 6
 231.214 716.231 l 5
 231.214 717.187 l 6
 240.764 726.736 250.312 734.376 263.682 734.376 c 4
181.555 -27.6943 m 5
 181.555 -37.2441 l 5
 206.383 -13.3701 l 5
 183.465 -13.3701 l 5
 181.555 -27.6943 l 5
181.555 545.29 m 5
 183.465 530.966 l 5
 206.383 530.966 l 5
 181.555 554.84 l 5
 181.555 545.29 l 5
EndSplineSet
EndChar

StartChar: uni0237
Encoding: 567 567 85
Width: 295
VWidth: 0
Flags: W
VStem: 104.093 87.856<-92.4088 -27.6943 -13.3701 491.638>
LayerCount: 2
Fore
SplineSet
148.021 497.542 m 0
 172.85 497.542 191.949 477.487 191.949 453.613 c 2
 191.949 -37.2441 l 2
 191.949 -68.7578 180.49 -84.0381 172.85 -90.7227 c 2
 55.3877 -198.635 l 1
 55.3877 -199.591 l 2
 42.0195 -214.869 29.6035 -215.823 22.9189 -215.823 c 0
 21.0088 -215.823 18.1455 -214.869 18.1455 -214.869 c 2
 9.5498 -213.914 -0.954102 -208.184 -0.954102 -199.591 c 0
 -0.954102 -196.725 0 -192.905 1.91016 -189.085 c 1
 81.1729 -106.957 l 1
 82.1279 -105.047 l 2
 95.4971 -84.9932 104.093 -72.5781 104.093 -42.9736 c 0
 104.093 -40.1094 104.093 -38.1992 104.093 -37.2441 c 2
 104.093 -27.6943 l 1
 104.093 453.613 l 2
 104.093 477.487 123.192 497.542 148.021 497.542 c 0
104.093 -27.6943 m 1
 104.093 -13.3701 l 1
 80.2188 -13.3701 l 1
 104.093 -37.2441 l 1
 104.093 -27.6943 l 1
EndSplineSet
EndChar

StartChar: uni0202
Encoding: 514 514 237
Width: 487
VWidth: 0
Flags: HW
HStem: 0 21<55.8657 77.5442 407.583 416.368> 166.166 89.767<163.11 322.782> 907.227 91.6768<187.87 286.724>
VStem: 19.0986 83.6558<7.85082 46.7939>
LayerCount: 2
Fore
SplineSet
107.912 819.368 m 4
 98.3623 819.368 88.8125 822.233 82.1279 827.008 c 6
 63.0283 842.289 l 5
 105.047 924.415 163.299 998.903 237.532 998.903 c 4
 311.954 998.903 364.479 922.505 411.273 842.289 c 5
 390.264 827.008 l 6
 386.444 822.233 376.893 819.368 367.343 819.368 c 4
 355.884 819.368 344.425 822.233 335.829 830.828 c 4
 306.226 861.388 283.371 907.227 237.532 907.227 c 4
 191.694 907.227 168.075 861.388 138.471 830.828 c 4
 129.876 822.233 118.418 819.368 107.912 819.368 c 4
EndSplineSet
Refer: 45 65 N 1 0 0 1 0 0 3
EndChar

StartChar: uni0203
Encoding: 515 515 238
Width: 454
VWidth: 0
Flags: HW
HStem: -5.72949 92.6318<115.911 225.177> 210.094 76.398<115.891 262.772> 385.811 89.766<134.797 325.854> 683.762 90.722<206.833 327.07>
VStem: 23.874 88.813<92.3365 207.021> 331.485 88.8135<0.954102 42.0195 86.9023 210.094 254.022 379.719>
LayerCount: 2
Fore
SplineSet
124.147 595.904 m 4
 123.192 595.904 l 4
 113.643 595.904 105.047 597.814 99.3174 602.589 c 6
 80.2188 619.778 l 5
 120.326 700.952 180.49 774.484 267.394 774.484 c 4
 355.25 774.484 406.818 699.042 454.567 619.778 c 5
 434.514 602.589 l 6
 428.784 597.814 420.189 595.904 410.64 595.904 c 4
 399.179 595.904 386.766 599.725 380.08 607.364 c 4
 349.521 638.879 324.691 683.762 267.394 683.762 c 4
 209.14 683.762 183.355 638.879 153.751 607.364 c 4
 147.066 599.725 134.65 595.904 124.147 595.904 c 4
EndSplineSet
Refer: 3 97 N 1 0 0 1 0 0 3
EndChar

StartChar: uni0206
Encoding: 518 518 239
Width: 489
VWidth: 0
Flags: HW
HStem: 1.91016 88.8125<138.471 444.142> 296.997 89.769<138.471 354.994> 610.229 88.813<138.471 422.261> 907.227 91.6768<165.985 263.918>
VStem: 49.6592 88.8118<90.7227 296.997 386.766 610.229>
LayerCount: 2
Fore
SplineSet
96.3232 819.368 m 0
 85.8193 819.368 77.2246 822.233 71.4941 827.008 c 2
 52.3955 842.289 l 1
 94.4141 924.415 145.027 998.903 214.549 998.903 c 0
 289.929 998.903 340.541 922.505 388.29 842.289 c 1
 368.234 827.008 l 2
 363.461 822.233 353.911 819.368 344.36 819.368 c 0
 332.901 819.368 321.442 822.233 313.803 830.828 c 0
 283.243 861.388 260.388 907.227 214.549 907.227 c 0
 167.948 907.227 148.084 861.388 124.401 830.828 c 0
 118.288 822.233 107.783 819.368 96.3232 819.368 c 0
EndSplineSet
Refer: 59 69 N 1 0 0 1 0 0 3
EndChar

StartChar: uni0207
Encoding: 519 519 240
Width: 436
VWidth: 0
Flags: HW
HStem: 0 87.8584<138.348 325.362> 206.419 72.345<130.237 309.139> 390.044 81.173<138.968 299.98> 683.762 90.7227<181.492 277.192>
VStem: 40.4697 89.7673<93.4681 206.419 278.764 383.059> 309.139 89.769<278.764 383.058>
LayerCount: 2
Fore
SplineSet
112.465 595.904 m 0
 102.915 595.904 93.3672 597.814 87.6367 602.589 c 2
 68.5381 619.778 l 1
 110.557 700.952 160.14 774.484 229.661 774.484 c 0
 300.714 774.484 352.322 699.042 398.161 619.778 c 1
 379.062 602.589 l 2
 373.333 597.814 363.782 595.904 354.232 595.904 c 0
 343.729 595.904 331.314 599.725 323.676 607.364 c 0
 295.364 638.879 275.5 683.762 229.661 683.762 c 0
 183.823 683.762 163.96 638.879 140.278 607.364 c 0
 133.4 599.725 123.925 595.904 112.465 595.904 c 0
EndSplineSet
Refer: 11 101 N 1 0 0 1 0 0 3
EndChar

StartChar: uni020A
Encoding: 522 522 241
Width: 199
VWidth: 0
Flags: HW
HStem: 0.954102 21<49.6592 138.471> 907.227 91.676<67.8195 179.347>
VStem: 49.6592 88.8118<0.954102 691.636>
LayerCount: 2
Fore
SplineSet
-15.2793 819.368 m 0
 -24.8281 819.368 -34.3789 822.233 -39.1533 827.008 c 2
 -59.208 842.289 l 1
 -18.1455 924.415 40.1094 998.903 127.968 998.903 c 0
 206.4 998.903 257.014 922.505 303.809 842.289 c 1
 284.708 827.008 l 2
 278.978 822.233 270.383 819.368 260.834 819.368 c 0
 248.419 819.368 236.959 822.233 229.32 830.828 c 0
 199.715 861.388 176.67 907.227 127.968 907.227 c 0
 70.668 907.227 45.8389 861.388 15.2793 830.828 c 0
 8.5957 822.233 -3.82031 819.368 -15.2793 819.368 c 0
EndSplineSet
Refer: 49 73 N 1 0 0 1 0 0 3
EndChar

StartChar: uni020B
Encoding: 523 523 242
Width: 296
VWidth: 0
Flags: HW
HStem: 707.636 42.974<54.2922 189.583>
VStem: -35.5957 314.188 75.0469 89.7681<1.87402 469.092>
LayerCount: 2
Fore
SplineSet
-21.2705 619.778 m 0xc0
 -27 619.778 -28.9102 620.733 -30.8203 621.688 c 2
 -35.5957 625.509 l 1
 10.2441 705.727 59.9023 750.61 121.976 750.61 c 0
 190.734 750.61 232.753 699.042 278.592 625.509 c 1
 273.817 621.688 l 2
 273.817 620.733 269.042 619.778 265.222 619.778 c 0
 257.582 619.778 253.764 621.688 251.854 624.554 c 0
 226.068 650.338 192.645 707.636 121.976 707.636 c 0
 51.3086 707.636 16.9287 650.338 -7.90137 624.554 c 0
 -8.85449 621.688 -13.6299 619.778 -21.2705 619.778 c 0xc0
EndSplineSet
Refer: 76 305 N 1 0 0 1 0 0 3
EndChar

StartChar: uni020E
Encoding: 526 526 243
Width: 510
VWidth: 0
Flags: HW
HStem: 0.954102 88.8145<136.437 378.549> 609.274 88.812<136.437 377.708> 847.227 91.6768<191.527 288.122>
VStem: 43.9287 89.7673<91.8456 139.426 139.426 606.74> 382.054 89.7676<91.8456 606.74>
LayerCount: 2
Fore
SplineSet
124.873 759.368 m 4
 115.623 759.368 106.074 762.233 101.299 767.008 c 6
 81.2451 782.289 l 5
 123.264 864.415 169.948 938.903 239.47 938.903 c 4
 311.284 938.903 352.539 862.505 394.667 782.289 c 5
 375.57 767.008 l 6
 369.346 762.233 362.47 759.368 354.831 759.368 c 4
 345.663 759.368 336.495 762.233 330.383 770.828 c 4
 306.7 801.388 286.073 847.227 239.47 847.227 c 4
 193.631 847.227 173.768 801.388 150.085 770.828 c 4
 143.973 762.233 134.805 759.368 124.873 759.368 c 4
EndSplineSet
Refer: 38 79 N 1 0 0 1 0 0 3
EndChar

StartChar: uni020F
Encoding: 527 527 244
Width: 423
VWidth: 0
Flags: HW
HStem: -7.63965 88.8125<149.42 333.82> 386.766 88.811<149.42 334.174> 593.762 90.7227<175.877 272.837>
VStem: 57.4238 88.8132<83.3241 384.613> 337.001 88.815<83.3241 384.613>
LayerCount: 2
Fore
SplineSet
106.851 505.904 m 4
 96.3467 505.904 87.752 507.814 82.0215 512.589 c 6
 62.9229 529.778 l 5
 104.94 610.952 155.034 684.484 224.556 684.484 c 4
 294.842 684.484 341.832 609.042 389.582 529.778 c 5
 369.526 512.589 l 6
 364.751 507.814 355.202 505.904 345.653 505.904 c 4
 334.193 505.904 321.778 509.725 315.093 517.364 c 4
 290.258 548.879 270.395 593.762 224.556 593.762 c 4
 177.953 593.762 157.326 548.879 133.642 517.364 c 4
 128.295 509.725 117.355 505.904 106.851 505.904 c 4
EndSplineSet
Refer: 8 111 N 1 0 0 1 0 0 3
EndChar

StartChar: uni0212
Encoding: 530 530 245
Width: 449
VWidth: 0
Flags: HW
HStem: 0.954102 21<49.6592 138.471> 296.042 89.769<138.471 263> 607.364 90.722<138.471 322.119> 847.227 91.6768<151.896 245.894>
VStem: 49.6592 88.8118<0.954102 296.042 385.811 607.364> 325.646 89.769<387.654 421.144 421.144 603.86>
LayerCount: 2
Fore
SplineSet
76.875 759.368 m 4
 67.3262 759.368 57.7764 762.233 52.0469 767.008 c 6
 32.9482 782.289 l 5
 74.0107 864.415 129.59 938.903 199.113 938.903 c 4
 270.162 938.903 313.709 862.505 360.501 782.289 c 5
 341.403 767.008 l 6
 335.673 762.233 326.123 759.368 316.575 759.368 c 4
 306.07 759.368 295.373 762.233 288.498 770.828 c 4
 264.814 801.388 244.951 847.227 199.113 847.227 c 4
 153.273 847.227 133.411 801.388 108.389 770.828 c 4
 99.7949 762.233 87.3789 759.368 76.875 759.368 c 4
EndSplineSet
Refer: 42 82 N 1 0 0 1 0 0 3
EndChar

StartChar: uni0213
Encoding: 531 531 246
Width: 377
VWidth: 0
Flags: HW
HStem: 0.954102 21<39.1533 127.968> 385.811 91.676<180.778 342.906> 616.628 91.6768<158.24 254.906>
VStem: 39.1533 88.8147<0.954102 384.551 443.108 475.577>
LayerCount: 2
Fore
SplineSet
85.2354 527.814 m 4
 75.6865 527.814 66.1367 531.635 61.3613 535.455 c 6
 41.3066 551.688 l 5
 83.3262 632.861 135.659 708.305 205.18 708.305 c 4
 281.513 708.305 333.083 631.906 378.92 551.688 c 5
 359.823 535.455 l 6
 354.09 531.635 344.541 527.814 334.993 527.814 c 4
 324.488 527.814 312.074 531.635 305.387 540.229 c 4
 273.874 570.788 251.019 616.628 205.18 616.628 c 4
 159.342 616.628 139.479 570.788 115.794 540.229 c 4
 108.155 531.635 97.6514 527.814 85.2354 527.814 c 4
EndSplineSet
Refer: 6 114 N 1 0 0 1 0 0 3
EndChar

StartChar: uni0216
Encoding: 534 534 247
Width: 504
VWidth: 0
Flags: HW
HStem: 0.954102 88.8145<139.892 353.571> 852.956 90.7236<178.715 275.106>
VStem: 47.749 89.768<92.6567 697.571> 356.015 89.767<92.6567 692.966>
LayerCount: 2
Fore
SplineSet
112.464 765.099 m 4
 103.479 765.099 93.9297 767.008 87.2451 771.783 c 6
 68.1455 788.973 l 5
 110.164 868.235 156.775 943.68 227.06 943.68 c 4
 297.347 943.68 342.032 868.235 388.828 788.973 c 5
 367.816 771.783 l 6
 363.996 767.008 354.446 765.099 344.897 765.099 c 4
 333.437 765.099 323.322 768.918 316.447 776.558 c 4
 292.764 807.117 272.9 852.956 227.06 852.956 c 4
 181.222 852.956 160.595 807.117 136.148 776.558 c 4
 130.036 768.918 120.869 765.099 112.464 765.099 c 4
EndSplineSet
Refer: 47 85 N 1 0 0 1 0 0 3
EndChar

StartChar: uni0217
Encoding: 535 535 248
Width: 464
VWidth: 0
Flags: HW
HStem: -7.9541 97.7227<149.177 267.719> 623.762 90.7227<163.45 258.763>
VStem: 58.1992 87.8588<91.3171 475.577> 337.86 89.766<0.954102 30.5596 90.8406 125.102 125.102 475.577>
LayerCount: 2
Fore
SplineSet
89.668 535.904 m 4
 80.1182 535.904 70.5664 537.814 63.8828 542.589 c 6
 44.7822 559.778 l 5
 86.8008 640.952 141.224 714.484 210.748 714.484 c 4
 281.033 714.484 325.343 639.042 372.136 559.778 c 5
 352.085 542.589 l 6
 347.308 537.814 337.759 535.904 328.21 535.904 c 4
 317.704 535.904 307.008 539.725 300.132 547.364 c 4
 276.45 578.879 256.587 623.762 210.748 623.762 c 4
 164.909 623.762 144.281 578.879 119.271 547.364 c 4
 111.631 539.725 100.172 535.904 89.668 535.904 c 4
EndSplineSet
Refer: 4 117 N 1 0 0 1 0 0 3
EndChar

StartChar: cedilla
Encoding: 184 184 260
Width: 452
VWidth: 0
Flags: HW
HStem: -215.877 53.532<148.869 247.124> -93.6406 44.9375<168.107 247.08>
VStem: 121.15 46.85<-47.5957 0> 248.162 46.849<-162.13 -95.2007>
LayerCount: 2
Fore
SplineSet
222.937 -48.7471 m 4
 270.042 -48.7471 295.011 -76.6211 295.011 -116.056 c 6
 295.011 -138.976 l 6
 295.011 -177.545 270.24 -215.877 222.882 -215.877 c 4
 203.271 -215.877 155.907 -199.312 116.377 -179.12 c 5
 116.377 -162.345 l 5
 232.793 -162.345 l 5
 241.276 -162.345 248.162 -154.87 248.162 -145.66 c 6
 248.162 -109.371 l 6
 248.162 -100.688 241.115 -93.6406 232.432 -93.6406 c 6
 178 -93.6406 l 6
 152.052 -93.6406 121.15 -71.3223 121.15 -38.7031 c 6
 121.15 0 l 5
 168 0 l 5
 168 -48.7031 l 5
 222.937 -48.7471 l 4
EndSplineSet
EndChar

StartChar: Ccedilla
Encoding: 199 199 261
Width: 532
VWidth: 0
Flags: HW
HStem: -212.12 47.12<244.517 359.507> -97.0713 54.0527<297.567 359.507> 1.79785 102.464<184.074 241.015 296.967 475.221> 575.242 100.668<184.074 466.491>
VStem: 80.667 101.565<107.557 572.368> 241.015 55.952<-43.916 1.79785> 360.27 56.24<-163.465 -97.1456>
LayerCount: 2
Fore
SplineSet
243.27 -165 m 1
 342.27 -165 l 2
 352.145 -165.489 360.27 -157.685 360.27 -146 c 2
 360.559 -116.846 l 2
 360.63 -109.655 357.862 -97.0713 341.682 -97.0713 c 2
 311.35 -97.0713 l 2
 287.98 -97.0713 241.015 -79.0957 241.015 -49.4355 c 2
 241.015 1.79785 l 1
 213.152 1.79785 l 2
 142.685 1.79785 80.667 64.7148 80.667 142.911 c 2
 80.667 537.491 l 2
 80.667 614.79 142.685 675.91 213.152 675.91 c 2
 418.309 675.91 l 2
 465.046 675.91 491.112 629.171 497.405 585.129 c 2
 499.202 575.242 l 1
 203.086 575.242 l 2
 191.581 575.242 182.232 564.456 182.232 550.075 c 2
 182.232 129.43 l 2
 182.232 115.947 191.581 104.262 203.086 104.262 c 2
 509.988 104.262 l 1
 508.189 93.4775 l 2
 500.999 52.1309 474.035 1.79785 430.893 1.79785 c 2
 296.967 1.79785 l 1
 296.967 -43.916 l 1
 310.452 -43.916 l 2
 312.248 -43.916 348.201 -43.0186 353.594 -43.0186 c 0
 396.737 -43.0186 416.51 -88.083 416.51 -122.238 c 2
 416.51 -143.811 l 2
 416.51 -179.763 396.737 -212.12 353.594 -212.12 c 0
 334.717 -212.12 269.27 -210 243.27 -192 c 9
 243.27 -165 l 1
EndSplineSet
EndChar

StartChar: ccedilla
Encoding: 231 231 262
Width: 518
VWidth: 0
Flags: HW
HStem: -215.877 53.532<264.53 343.87> -93.6406 44.9375<279.921 343.825> 0 90.7227<190.17 242.355 279.835 433.147> 396.314 86.903<191.451 434.581>
VStem: 97.4072 89.7678<94.587 394.694> 242.355 37.48<-47.5957 -38.7031 -38.7031 0> 343.965 46.6358<-162.13 -95.2007>
LayerCount: 2
Fore
SplineSet
279.835 0 m 1
 279.835 -48.7031 l 1
 323.785 -48.7471 l 0
 365.631 -48.7471 390.6 -76.6211 390.6 -116.056 c 2
 390.6 -138.976 l 2
 390.6 -177.545 365.829 -215.877 323.741 -215.877 c 0
 308.052 -215.877 270.161 -199.312 238.537 -179.12 c 1
 238.537 -162.345 l 1
 331.669 -162.345 l 1
 338.456 -162.345 343.965 -154.87 343.965 -145.66 c 2
 343.965 -109.371 l 2
 343.965 -100.688 338.327 -93.6406 331.381 -93.6406 c 2
 287.835 -93.6406 l 2
 267.077 -93.6406 242.355 -71.3223 242.355 -38.7031 c 2
 242.355 0 l 1
 226.902 -0.0898438 l 2
 142.291 3.72949 97.4072 66.8477 97.4072 141.336 c 2
 97.4072 345.701 l 2
 97.4072 425.919 148.021 483.217 231.486 483.217 c 2
 382.689 483.217 l 2
 439.03 483.217 458.131 429.738 464.817 396.314 c 1
 216.207 396.314 l 2
 199.399 396.314 187.175 380.08 187.175 360.98 c 2
 187.175 126.058 l 2
 187.175 106.002 199.399 90.7227 216.207 90.7227 c 2
 464.817 90.7227 l 1
 458.131 57.2979 439.03 -0.0898438 382.689 -0.0898438 c 2
 279.835 0 l 1
EndSplineSet
EndChar

StartChar: numbersign
Encoding: 35 35 263
Width: 606
VWidth: 0
Flags: HW
HStem: -0.125977 21G<139.237 193.065 373.713 392.813> 213.789 48.703<73.4444 168.842 249.949 372.186 448.584 542.512> 424.838 48.704<102.399 196.47 272.104 395.105 475.448 570.564>
VStem: 220.153 71.8144<590.881 689.472>
LayerCount: 2
Fore
SplineSet
395.105 424.838 m 5
 266.756 424.838 l 5
 249.949 262.492 l 5
 377.532 262.492 l 5
 395.105 424.838 l 5
262.935 697.007 m 4
 280.507 697.007 291.967 682.682 291.967 663.582 c 4
 291.967 661.672 291.967 658.808 291.967 657.853 c 6
 272.104 473.542 l 5
 399.689 473.542 l 5
 418.789 652.122 l 6
 421.845 675.042 440.179 697.007 463.988 697.007 c 6
 505.053 697.007 l 5
 475.448 473.542 l 5
 553.757 473.542 l 6
 563.307 473.542 571.9 466.857 571.9 455.397 c 4
 571.9 454.441 571.9 455.397 571.9 453.487 c 6
 571.9 451.577 l 6
 569.036 436.299 554.711 424.838 540.386 424.838 c 6
 468.763 424.838 l 5
 448.584 262.492 l 5
 525.107 262.492 l 6
 535.611 262.492 544.206 254.854 544.206 245.304 c 4
 544.206 243.394 544.206 244.348 544.206 242.438 c 6
 543.252 239.572 l 6
 542.296 225.248 526.062 213.789 511.737 213.789 c 6
 442.471 213.789 l 5
 424.9 44.7578 l 6
 422.608 21.8389 403.508 -0.125977 382.118 -0.125977 c 4
 365.309 -0.125977 353.086 14.1992 353.086 33.2979 c 4
 353.086 35.208 353.086 38.0732 353.85 39.0273 c 6
 372.186 213.789 l 5
 243.836 213.789 l 5
 226.265 44.7578 l 6
 223.973 21.8389 204.874 -0.125977 181.256 -0.125977 c 6
 139.237 -0.125977 l 5
 168.842 213.789 l 5
 91.4883 213.789 l 6
 80.0273 213.789 72.3877 220.473 72.3877 230.022 c 4
 72.3877 231.933 72.3877 233.843 72.3877 233.843 c 5
 72.3877 235.753 l 6
 74.2979 251.033 88.623 262.492 102.948 262.492 c 6
 175.525 262.492 l 5
 196.47 424.838 l 5
 118.227 424.838 l 6
 107.723 424.838 101.038 430.567 101.038 442.028 c 4
 101.038 442.982 101.038 443.938 101.038 443.938 c 5
 101.038 445.848 l 6
 102.948 462.083 117.272 473.542 131.597 473.542 c 6
 201.054 473.542 l 5
 220.153 652.122 l 6
 223.209 675.042 241.545 697.007 262.935 697.007 c 4
EndSplineSet
EndChar

StartChar: dollar
Encoding: 36 36 264
Width: 496
VWidth: 0
Flags: HW
HStem: -95.5781 21G<263.391 305.512> -0.0810547 78.3077<63.0417 263.391 318.117 433.158> 296.916 89.769<146.223 434.55> 618.743 79.264<143.27 268.191 318.117 492.069>
VStem: 51.4883 87.8577<393.681 613.565> 263.391 54.726<-95.5739 -0.0810547 698.007 789.646> 438.943 87.856<84.9147 114.517 114.517 290.264>
LayerCount: 2
Fore
SplineSet
278.117 789.683 m 1
 278.117 698.007 l 1
 358.444 698.007 l 2
 400.546 697.052 428.241 675.086 433.016 618.743 c 1
 182.893 618.743 l 2
 157.681 618.743 139.346 602.509 139.346 582.455 c 2
 139.346 422.018 l 2
 139.346 415.334 148.513 386.686 182.893 386.685 c 2
 330.293 386.685 l 2
 408.6 386.685 446.799 329.387 446.799 267.312 c 2
 446.799 111.65 l 2
 446.799 35.2529 404.781 -0.0810547 314.25 -0.0810547 c 2
 278.117 -0.0810547 l 1
 278.117 -81.2529 l 2
 278.117 -89.8477 270.096 -95.5781 260.927 -95.5781 c 2
 223.391 -95.5781 l 1
 223.391 -0.0810547 l 1
 108.392 -0.0810547 l 2
 73.0576 -0.0810547 51.0928 19.9736 46.3174 78.2266 c 1
 314.25 78.2266 l 2
 324.562 78.2266 358.943 85.8672 358.943 114.517 c 2
 358.943 262.537 l 2
 358.943 281.638 337.168 296.916 314.25 296.916 c 2
 167.995 296.916 l 2
 99.2373 296.916 51.4883 340.845 51.4883 399.1 c 2
 51.4883 609.193 l 2
 52.4434 655.987 87.7764 698.007 167.995 698.007 c 2
 228.191 698.007 l 1
 228.191 775.359 l 2
 228.191 783.953 236.213 789.683 246.527 789.683 c 2
 278.117 789.683 l 1
EndSplineSet
EndChar

StartChar: Euro
Encoding: 8364 8364 265
Width: 589
VWidth: 0
Flags: HW
HStem: 0.874023 88.8125<209.956 500.164> 239.618 48.704<49.9747 118.417 206.273 360.407> 401.01 48.702<49.8424 118.417 206.273 379.37> 609.193 88.814<209.956 489.158>
VStem: 118.417 87.856<91.3835 239.618 288.322 401.01 449.712 607.497>
LayerCount: 2
Fore
SplineSet
246.766 698.007 m 6
 443.49 698.007 l 6
 485.51 697.052 511.293 655.032 518.934 609.193 c 5
 236.071 609.193 l 6
 220.79 609.193 206.273 593.914 206.273 572.904 c 6
 206.273 449.712 l 5
 354.678 449.712 l 6
 356.588 449.712 360.407 449.712 360.407 449.712 c 6
 369.957 446.848 376.643 440.163 379.507 430.613 c 4
 379.507 429.658 379.507 430.613 379.507 424.884 c 6
 379.507 401.01 l 5
 206.273 401.01 l 5
 206.273 288.322 l 5
 379.507 288.322 l 5
 379.507 263.492 l 5
 379.507 263.492 379.507 262.537 379.507 258.717 c 4
 376.643 249.168 369.957 242.483 360.407 239.618 c 4
 358.497 239.618 360.407 239.618 354.678 239.618 c 6
 206.273 239.618 l 5
 206.273 125.976 l 6
 206.273 106.877 218.499 89.6865 236.071 89.6865 c 6
 530.393 89.6865 l 5
 522.753 44.8027 495.059 0.874023 456.859 0.874023 c 6
 246.766 0.874023 l 6
 179.535 0.874023 118.417 61.9932 118.417 139.346 c 6
 118.417 239.618 l 5
 72.5781 239.618 l 6
 65.8936 239.618 56.3447 242.483 49.6592 254.896 c 4
 49.6592 255.854 l 6
 48.7031 258.717 48.7031 261.582 48.7031 263.492 c 6
 48.7031 288.322 l 5
 118.417 288.322 l 5
 118.417 401.01 l 5
 48.7031 401.01 l 5
 48.7031 424.884 l 6
 48.7031 429.658 48.7031 429.658 49.6592 431.567 c 4
 49.6592 434.434 49.6592 434.434 49.6592 434.434 c 6
 53.4785 443.982 63.0273 449.712 72.5781 449.712 c 6
 118.417 449.712 l 5
 118.417 559.534 l 6
 118.417 636.887 179.535 698.007 246.766 698.007 c 6
518.934 609.193 m 5
 518.934 602.509 519.889 595.823 519.889 588.185 c 4
 519.889 587.229 519.889 587.229 519.889 586.274 c 5
 543.763 609.193 l 5
 518.934 609.193 l 5
EndSplineSet
EndChar

StartChar: percent
Encoding: 37 37 266
Width: 874
VWidth: 0
Flags: HW
HStem: -22.9541 1.9082<211.3 213.59> -21.0459 0 1.87402 52.5244<541.661 629.48> 285.502 53.478<700.526 749.007> 361.9 53.478<140.572 229.194> 646.482 52.525<130.644 218.498>
VStem: 61.1182 53.4788<435.482 457.397 457.397 642.347> 244.474 53.478<417.78 626.379> 462.209 53.478<74.5009 87.8223> 733.125 1.67224<702.827 708.51>
LayerCount: 2
Fore
SplineSet
218.498 646.482 m 5
 140.572 646.482 l 6
 137.516 646.482 130.639 644.572 130.639 642.662 c 4
 116.125 635.978 118.417 626.429 114.597 613.059 c 5
 114.597 447.848 l 6
 114.597 442.118 115.361 436.389 116.125 435.434 c 4
 122.237 418.243 129.876 421.108 140.572 415.378 c 5
 218.498 415.378 l 6
 221.554 415.378 228.431 417.288 229.194 417.288 c 4
 242.946 424.928 240.654 435.434 244.474 447.848 c 5
 244.474 613.059 l 6
 244.474 617.833 243.71 625.474 242.946 626.429 c 4
 236.835 642.662 229.194 640.753 218.498 646.482 c 5
148.976 699.007 m 6
 210.095 699.007 l 6
 254.978 699.007 297.952 656.032 297.952 602.554 c 6
 297.952 457.397 l 6
 297.952 403.919 254.978 361.9 210.095 361.9 c 6
 148.976 361.9 l 6
 104.093 361.9 61.1182 403.919 61.1182 457.397 c 6
 61.1182 602.554 l 6
 61.1182 656.032 104.093 699.007 148.976 699.007 c 6
749.007 285.502 m 5
 706.377 285.502 l 6
 704.287 285.502 700.944 283.592 700.526 283.592 c 4
 693.003 275.952 694.257 265.447 692.167 253.033 c 5
 515.687 87.8223 l 6
 515.687 83.0469 516.45 75.4072 517.215 74.4512 c 4
 523.326 58.2188 530.966 60.1279 541.661 54.3984 c 5
 619.588 54.3984 l 6
 622.645 54.3984 628.755 56.3086 629.52 58.2188 c 4
 642.507 64.9023 641.744 74.4512 645.563 87.8223 c 5
 763.217 253.033 l 6
 763.217 258.764 762.381 264.492 762.381 265.447 c 4
 759.037 282.638 754.858 279.771 749.007 285.502 c 5
710.974 338.98 m 6
 744.41 338.98 l 6
 773.722 338.98 816.695 296.963 816.695 243.483 c 6
 699.041 98.3262 l 6
 699.041 44.8477 656.068 1.87402 611.185 1.87402 c 6
 550.065 1.87402 l 6
 505.182 1.87402 462.209 44.8477 462.209 98.3262 c 6
 638.689 243.483 l 6
 638.689 296.963 681.662 338.98 710.974 338.98 c 6
190.04 -4.81055 m 5
 192.905 -0.991211 195.771 5.69434 196.725 6.64941 c 6
 719.751 703.781 l 6
 721.423 709.51 722.258 713.33 723.094 717.15 c 5
 725.185 713.33 727.274 709.51 727.692 708.556 c 6
 733.125 702.827 l 5
 731.871 698.052 730.199 692.321 729.782 690.411 c 6
 219.645 -6.7207 l 6
 217.734 -12.4502 214.869 -16.2705 212.004 -20.0898 c 5
 208.184 -17.2246 202.455 -12.4502 201.5 -11.4951 c 6
 190.04 -4.81055 l 5
190.04 -4.81055 m 5
 189.085 -3.85449 186.22 -2.90137 185.266 -1.94629 c 4
 183.355 -0.991211 187.175 -10.54 187.175 -10.54 c 5
 187.175 -11.4951 l 5
 187.175 -10.54 189.085 -7.6748 190.04 -4.81055 c 5
215.823 -21.0459 m 5
 214.869 -21.0459 213.914 -21.0459 212.004 -20.0898 c 5
 211.049 -21.0459 211.049 -22 210.094 -22.9541 c 4
 209.14 -23.9102 213.914 -22 215.823 -21.0459 c 5
215.823 -21.0459 m 5
 218.689 -21.0459 l 5
 219.645 -21.0459 l 5
 219.645 -22 218.689 -22 215.823 -21.0459 c 5
733.125 702.827 m 5
 733.543 701.871 734.379 699.961 734.797 699.007 c 4
 736.051 698.052 733.961 707.602 733.961 707.602 c 5
 733.961 708.556 l 5
 733.961 707.602 733.543 704.736 733.125 702.827 c 5
721.423 718.105 m 5
 721.841 718.105 722.258 717.15 723.094 717.15 c 5
 723.513 718.105 723.513 719.06 723.93 719.06 c 4
 724.766 721.926 722.258 719.06 721.423 718.105 c 5
721.423 718.105 m 5
 720.587 718.105 l 5
 719.751 718.105 l 5
 719.751 718.105 720.587 719.06 721.423 718.105 c 5
EndSplineSet
EndChar

StartChar: ampersand
Encoding: 38 38 267
Width: 587
VWidth: 0
Flags: HW
HStem: 2.87402 88.8125<156.68 371.989> 217.744 46.793<335.855 374.729 464.497 525.679> 375.314 60.165<206.653 239.4 239.4 241.031 241.031 241.033> 623.608 79.263<167.588 381.191>
VStem: 63.4072 89.7678<92.9286 140.392 140.392 366.021> 80.5967 84.8023<443.549 487.047 487.047 590.185> 374.729 89.768<93.766 217.744>
LayerCount: 2
Fore
SplineSet
185.262 702.871 m 6xf6
 335.766 702.871 l 6
 369.382 700.961 395.738 679.952 401.468 623.608 c 5
 194.43 623.608 l 6
 179.914 620.743 177.622 619.788 171.51 611.193 c 4
 171.51 611.193 167.691 604.509 166.927 598.778 c 6
 165.399 595.914 l 5
 165.399 471.767 l 6xf6
 165.399 450.758 179.151 435.479 195.193 435.479 c 6
 234.157 435.479 l 6
 237.213 433.567 237.213 433.567 239.505 433.567 c 4
 239.505 432.613 241.033 432.613 241.033 432.613 c 6
 247.909 428.793 252.493 423.063 255.549 417.334 c 4
 257.077 413.514 257.077 409.692 257.077 407.784 c 6
 257.077 375.314 l 5
 182.207 375.314 l 6
 165.399 375.314 153.175 357.17 153.175 339.98 c 6
 153.175 127.021 l 6
 153.175 105.058 167.691 91.6865 182.207 91.6865 c 6
 346.462 91.6865 l 6
 362.505 91.6865 374.729 107.922 374.729 127.976 c 6
 374.729 217.744 l 5
 354.102 217.744 l 6
 343.406 217.744 335.766 228.248 335.766 240.663 c 4
 335.766 254.033 343.406 264.537 354.102 264.537 c 6
 531.344 264.537 l 5
 529.434 234.933 517.975 221.564 489.326 217.744 c 6
 464.497 217.744 l 5
 464.497 141.346 l 6
 464.497 64.9482 402.423 2.87402 335.003 2.87402 c 6
 193.666 2.87402 l 6
 126.436 2.87402 63.4072 63.9932 63.4072 140.392 c 6
 63.4072 327.566 l 6xfa
 63.4072 339.98 66.2725 369.586 127.392 383.909 c 6
 206.653 407.784 l 5
 127.392 429.748 l 6
 109.246 435.479 80.5967 452.667 80.5967 487.047 c 6
 80.5967 618.833 l 5
 80.5967 619.788 l 6
 82.5068 665.628 119.751 702.871 185.262 702.871 c 6xf6
80.5967 618.833 m 5
 80.5967 622.653 l 5
 50.0381 599.733 l 5
 78.6865 590.185 l 5
 80.5967 618.833 l 5
EndSplineSet
EndChar

StartChar: OE
Encoding: 338 338 268
Width: 792
VWidth: 0
Flags: HW
HStem: 23.874 88.813<209.267 355.823 444.637 693.265> 319.916 88.813<444.637 643.073> 632.193 88.814<209.267 355.823 444.637 671.162>
VStem: 116.507 88.813<114.766 162.346 162.346 630.115> 355.823 88.814<112.687 319.916 408.729 632.193>
LayerCount: 2
Fore
SplineSet
245.81 721.007 m 2
 677.65 721.007 l 1
 677.65 677.078 l 2
 677.65 651.294 657.596 632.193 632.767 632.193 c 2
 444.637 632.193 l 1
 444.637 408.729 l 1
 604.117 408.729 l 2
 632.767 405.864 649.956 387.72 649.956 363.845 c 0
 649.956 329.466 615.578 320.871 604.117 319.916 c 1
 444.637 319.916 l 1
 444.637 112.687 l 1
 654.731 112.687 l 2
 682.426 109.822 699.614 91.6777 699.614 67.8027 c 0
 699.614 43.9287 680.516 24.8281 654.731 23.874 c 2
 245.81 23.874 l 2
 179.535 23.874 116.507 85.9482 116.507 162.346 c 2
 116.507 582.534 l 2
 116.507 658.933 179.535 721.007 245.81 721.007 c 2
355.823 632.193 m 1
 235.115 632.193 l 2
 218.308 632.193 205.32 615.959 205.32 595.904 c 2
 205.32 148.976 l 2
 205.32 128.922 218.308 112.687 235.115 112.687 c 2
 355.823 112.687 l 1
 355.823 632.193 l 1
EndSplineSet
EndChar

StartChar: oe
Encoding: 339 339 269
Width: 765
VWidth: 0
Flags: HW
HStem: 22.9189 87.8571<190.68 333.087 436.325 651.938> 238.744 39.152<426.683 606.218> 409.685 87.857<190.68 333.849 434.101 580.889>
VStem: 97.4072 89.7678<114.766 162.346 162.346 406.195> 336.916 89.767<139.779 238.744 277.896 403.771> 606.218 88.813<277.896 402.969>
LayerCount: 2
Fore
SplineSet
227.666 497.542 m 2
 297.188 497.542 l 2
 320.871 497.542 344.555 487.992 368.429 471.758 c 2
 381.799 462.209 l 1
 396.124 471.758 l 2
 419.044 487.992 441.962 497.542 467.173 497.542 c 2
 566.492 497.542 l 2
 632.957 497.542 695.031 435.468 695.031 358.115 c 2
 695.031 238.744 l 1
 426.683 238.744 l 1
 426.683 161.392 l 2
 428.593 148.021 428.593 147.066 431.457 139.426 c 0
 439.097 123.192 457.242 110.776 474.431 110.776 c 2
 689.301 110.776 l 1
 680.707 51.5693 639.643 22.9189 565.154 22.9189 c 2
 474.431 22.9189 l 2
 441.962 22.9189 415.223 32.4697 393.257 47.749 c 2
 380.844 58.2529 l 1
 365.564 48.7031 l 2
 343.6 33.4238 320.871 23.874 297.188 23.874 c 2
 227.666 23.874 l 2
 160.436 23.874 97.4072 85.9482 97.4072 162.346 c 2
 97.4072 358.115 l 2
 97.4072 435.468 160.436 497.542 227.666 497.542 c 2
567.255 409.685 m 1
 464.881 409.685 l 2
 461.061 409.685 456.478 408.729 451.895 405.864 c 0
 438.141 399.179 431.267 383.9 429.739 377.215 c 0
 428.974 374.351 428.974 371.485 426.683 360.98 c 1
 426.683 277.896 l 1
 606.218 277.896 l 1
 606.218 360.98 l 2
 606.218 364.801 605.454 371.485 603.926 377.215 c 0
 597.814 395.359 586.354 402.044 581.006 405.864 c 0
 578.715 406.818 562.672 410.64 567.255 409.685 c 1
307.885 408.729 m 2
 216.207 408.729 l 2
 199.399 408.729 187.175 392.494 187.175 372.44 c 2
 187.175 148.976 l 2
 187.175 128.922 199.399 112.687 216.207 112.687 c 2
 307.885 112.687 l 2
 323.927 112.687 336.916 128.922 336.916 148.976 c 2
 336.916 372.44 l 2
 336.916 392.494 323.927 408.729 307.885 408.729 c 2
EndSplineSet
EndChar

StartChar: ae
Encoding: 230 230 270
Width: 746
VWidth: 0
Flags: HW
HStem: 0 85.9482<453.928 598.557> 0.954102 92.6328<149.399 257.897> 215.823 76.399<149.184 309.406> 221.555 46.793<346.128 361.035 491.866 607.8> 392.494 88.814<167.057 357.325> 400.135 81.173<455.549 598.548>
VStem: 57.3525 88.8135<99.2942 211.466> 361.035 87.857<268.348 388.254> 404.009 87.857<93.7749 215.823> 607.8 88.814<282.769 393.579>
LayerCount: 2
Fore
SplineSet
404.009 215.823 m 1x22c0
 189.713 215.823 l 2
 165.646 215.823 146.166 201.5 146.166 180.49 c 2
 146.166 129.877 l 2
 146.166 100.272 180.545 93.5869 189.713 93.5869 c 2
 404.009 93.5869 l 1
 404.009 215.823 l 1x22c0
569.601 400.135 m 2x1740
 487.856 400.135 l 2
 466.348 400.135 448.892 378.315 448.892 351.431 c 6
 448.892 268.348 l 1
 607.8 268.348 l 1
 607.8 351.431 l 2
 607.8 378.315 590.687 400.135 569.601 400.135 c 2x1740
453.928 85.9482 m 2x96c0
 632.821 85.9482 l 1
 625.181 32.4697 593.666 0 513.449 0 c 2
 449.465 0 l 2x96c0
 448.893 0 443.163 21.0088 389.111 51.5693 c 2
 377.651 56.3447 l 1
 203.464 7.63965 l 2
 182.837 1.91016 165.646 0.954102 150.749 0.954102 c 0
 75.4971 0.954102 57.3525 64.9375 57.3525 120.326 c 2
 57.3525 210.094 l 2
 57.3525 258.798 80.2725 292.222 147.121 292.222 c 0
 161.445 292.222 178.413 290.079 195.823 287.447 c 2
 361.035 262.473 l 1
 361.035 357.16 l 2
 361.035 371.485 346.711 391.539 324.746 392.494 c 1
 146.166 392.494 l 1
 149.985 427.829 162.399 481.308 207.284 481.308 c 2
 275.088 481.308 l 2x6b40
 321.881 481.308 358.17 469.848 385.864 450.748 c 2
 400.189 440.243 l 1
 413.559 450.748 l 2
 437.434 469.848 463.408 481.308 489.384 481.308 c 2
 567.31 481.308 l 2
 635.495 481.308 696.614 419.234 696.614 342.837 c 2
 682.48 221.555 l 1
 491.866 221.555 l 1
 491.866 135.606 l 2
 491.866 108.195 474.87 85.9482 453.928 85.9482 c 2x96c0
EndSplineSet
EndChar

StartChar: AE
Encoding: 198 198 271
Width: 825
VWidth: 0
Flags: HW
HStem: 1.83496 86.2119<476.153 770.214> 198 80<226.186 390.857> 286.153 85.296<476.153 685.052> 586.981 84.519<476.153 750.663>
VStem: 390.857 85.296<88.0469 198 278 286.153 371.449 585>
LayerCount: 2
Fore
SplineSet
390.857 278 m 1
 390.857 585 l 1
 379.519 584.333 364.72 577.693 355.386 557.5 c 2
 226.186 278 l 1
 390.857 278 l 1
755.673 671.36 m 5
 755.673 629.17 l 2
 755.673 605.324 737.33 586.981 712.565 586.981 c 2
 476.153 586.981 l 1
 476.153 371.449 l 1
 685.052 371.449 l 2
 712.565 368.698 729.075 352.189 729.075 329.261 c 0
 729.075 295.324 695.141 287.988 685.052 286.153 c 1
 476.153 286.153 l 1
 476.153 88.0469 l 1
 733.662 88.0469 l 2
 759.342 86.2139 776.767 68.7871 776.767 45.8584 c 0
 776.767 22.0117 758.424 4.58594 733.662 1.83496 c 2
 390.857 1.83496 l 1
 390.857 198 l 1
 197.386 198 l 1
 112.071 29.3496 l 2
 94.8223 1.3584 67.1299 -1.83496 55.207 -1.83496 c 0
 25.8584 -1.83496 2.92871 14.6738 2.92871 40.3555 c 0
 2.92871 47.6924 5.67969 56.8633 11.1836 69.7041 c 2
 295.472 610.827 l 2
 309.411 636.503 346.172 671.5 379.766 671.5 c 0
 379.786 671.5 l 2
 755.673 671.36 l 5
EndSplineSet
EndChar

StartChar: asciitilde
Encoding: 126 126 272
Width: 542
VWidth: 0
Flags: HW
HStem: 149.426 106.957<270.622 359.331> 237.284 106.002<126.032 216.797>
LayerCount: 2
Fore
SplineSet
167.628 237.284 m 0x40
 133.563 237.284 72.1453 175.716 59.208 175.716 c 0
 43.9287 175.716 26.7393 196.725 26.7393 213.914 c 0
 26.7393 219.645 29.3242 223.704 33.4238 228.239 c 2
 41.999 237.727 l 1
 43.543 239.365 l 1
 107.526 311.943 147.765 343.286 168.393 343.286 c 2
 171.448 343.286 l 2x40
 240.205 332.781 244.157 273.572 315.971 256.383 c 0
 319.028 256.383 l 0
 355.524 256.383 412.397 316.997 427.256 316.997 c 0
 443.491 316.997 460.68 295.988 460.68 278.798 c 0
 460.68 274.022 457.939 269.146 453.995 264.473 c 2
 446.847 256.001 l 1
 443.509 252.334 l 1
 377.616 180.711 339.655 149.426 318.263 149.426 c 2
 315.971 149.426 l 1x80
 247.213 161.842 243.263 219.14 171.448 237.284 c 0
 167.628 237.284 l 0x40
EndSplineSet
EndChar

StartChar: germandbls
Encoding: 223 223 276
Width: 565
VWidth: 0
Flags: HW
HStem: 23.8735 88.8135<249.624 356.731> 334.241 74.488<153.175 337.23> 645.562 74.49<158.311 337.638>
VStem: 63.4072 89.7678<-195.414 334.241 408.729 641.943> 340.35 88.813<410.372 642.023> 360.977 87.858<116.079 148.976 148.976 332.094>
LayerCount: 2
Fore
SplineSet
153.175 408.729 m 1xf8
 310.555 408.729 l 2
 327.362 408.729 340.35 424.01 340.35 444.062 c 2
 340.35 609.274 l 2
 340.35 638.879 316.666 645.562 310.555 645.562 c 2
 182.207 645.562 l 2
 163.871 645.562 153.175 628.373 153.175 607.364 c 1
 153.175 408.729 l 1xf8
429.163 439.375 m 2
 429.163 439.318 l 0xf8
 429.163 409.956 407.188 376.314 390.964 376.314 c 1
 367.09 372.44 l 1
 390.964 368.566 l 1
 415.793 368.566 453.992 318.963 453.992 288.402 c 2
 448.835 135.606 l 2
 448.835 63.0273 381.987 23.874 336.53 23.874 c 2
 274.649 23.874 l 17
 274.604 23.8737 274.559 23.8735 274.514 23.8735 c 0
 246.937 23.8735 234.151 87.1233 234.151 111.785 c 0
 234.151 112.092 234.153 112.392 234.157 112.687 c 1
 331.183 112.687 l 2
 347.225 112.687 360.977 127.968 360.977 148.976 c 2xf4
 366.134 297.952 l 2
 366.134 305.592 358.494 334.241 331.183 334.241 c 2
 153.175 334.241 l 1
 153.175 -161.392 l 2
 153.175 -186.167 133.066 -200.275 108.291 -200.275 c 0
 83.5156 -200.275 63.4072 -186.167 63.4072 -161.392 c 2
 63.4072 609.274 l 2
 63.4072 677.078 114.976 720.052 182.97 720.052 c 2
 310.555 720.052 l 2
 387.144 720.052 429.089 673.258 429.163 601.635 c 2
 429.163 439.375 l 2
EndSplineSet
EndChar

